{"glyphs":{"0":{"ha":426,"x_min":0,"x_max":0,"o":"m 204 -15 b 54 165 106 -15 54 32 l 54 733 b 222 941 54 884 131 941 b 372 761 321 941 372 894 l 372 193 b 204 -15 372 42 295 -15 m 204 836 b 162 748 170 836 162 802 l 162 218 b 222 90 162 106 190 90 b 264 177 256 90 264 123 l 264 708 b 204 836 264 819 235 836 "},"1":{"ha":225,"x_min":0,"x_max":0,"o":"m 71 0 l 71 710 l 0 710 l 0 741 l 26 741 b 131 867 76 741 97 767 l 162 958 l 179 958 l 179 0 "},"2":{"ha":403,"x_min":0,"x_max":0,"o":"m 25 0 b 241 654 196 326 241 486 l 241 756 b 170 836 241 824 227 836 b 88 750 105 836 88 802 b 207 478 88 681 116 603 l 74 478 b 49 733 57 557 49 656 b 207 941 49 830 117 941 b 349 764 301 941 349 894 l 349 679 b 156 62 349 569 302 349 l 164 49 l 372 123 l 372 0 l 25 0 "},"3":{"ha":390,"x_min":0,"x_max":0,"o":"m 170 -96 b 236 48 210 -96 236 -68 l 236 239 b 153 355 236 318 211 355 l 79 355 l 79 386 l 153 386 b 225 502 204 386 225 426 l 225 693 b 167 836 225 810 215 836 b 62 750 83 836 62 802 b 211 509 62 688 90 633 l 63 509 b 23 733 34 580 23 665 b 204 941 23 830 102 941 b 333 731 292 941 333 897 l 333 594 b 218 380 333 451 295 394 l 219 367 l 287 377 b 344 147 330 346 344 250 l 344 9 b 176 -201 344 -142 285 -201 b 57 57 94 -201 54 -90 l 62 244 l 83 244 l 88 62 b 170 -96 91 -37 103 -96 "},"4":{"ha":366,"x_min":0,"x_max":0,"o":"m 187 1127 l 295 1127 l 117 344 l 127 332 l 140 332 b 253 458 193 332 225 377 l 284 549 l 301 549 l 285 332 l 366 332 l 366 316 l 315 304 b 285 262 292 298 285 284 l 285 0 l 177 0 l 177 301 l 8 301 "},"5":{"ha":380,"x_min":0,"x_max":0,"o":"m 330 9 b 181 -201 330 -142 272 -201 b 43 57 80 -201 40 -90 l 48 244 l 69 244 l 74 62 b 156 -96 77 -37 90 -96 b 222 48 196 -96 222 -68 l 222 414 b 185 494 222 469 215 494 b 69 290 136 494 97 409 l 46 290 l 46 926 l 333 926 l 333 826 l 154 826 l 154 597 l 100 477 l 113 469 b 250 599 164 569 199 599 b 330 474 292 599 330 551 "},"6":{"ha":418,"x_min":0,"x_max":0,"o":"m 119 366 l 134 363 b 278 633 167 594 219 633 b 380 508 336 633 380 585 l 380 193 b 204 -15 380 42 299 -15 b 46 165 102 -15 46 32 l 46 934 b 204 1142 46 1085 119 1142 b 323 998 284 1142 323 1094 b 292 656 323 920 319 812 l 174 656 b 293 991 282 887 293 948 b 204 1042 293 1028 269 1042 b 154 949 164 1042 154 1006 l 154 600 m 154 218 b 222 90 154 106 185 90 b 272 177 262 90 272 123 l 272 452 b 225 532 272 508 256 532 b 154 281 191 532 154 426 l 154 218 "},"7":{"ha":335,"x_min":0,"x_max":0,"o":"m 319 926 l 140 -201 l 35 -201 l 213 858 l 201 875 l 31 802 l 31 926 "},"8":{"ha":448,"x_min":0,"x_max":0,"o":"m 39 363 b 96 588 39 468 52 557 l 196 580 l 196 596 b 62 810 106 613 62 673 l 62 932 b 235 1142 57 1083 137 1142 b 386 961 333 1142 386 1094 l 386 810 b 252 596 386 673 341 613 l 252 580 l 352 588 b 409 363 395 557 409 468 l 409 194 b 216 -15 415 43 324 -15 b 39 165 102 -15 39 32 m 170 718 b 224 614 170 650 182 614 b 278 718 265 614 278 650 l 278 914 b 224 1042 278 1025 252 1042 b 170 952 181 1042 170 1008 l 170 718 m 147 213 b 235 85 147 102 187 85 b 301 174 289 85 301 119 l 301 455 b 228 557 301 525 281 557 l 219 557 b 147 455 167 557 147 525 l 147 213 "},"9":{"ha":410,"x_min":0,"x_max":0,"o":"m 248 295 l 284 529 l 269 532 b 133 262 236 301 188 262 b 39 387 79 262 39 310 l 39 733 b 207 941 39 884 116 941 b 356 761 304 941 356 894 l 356 9 b 181 -201 356 -142 295 -201 b 46 57 96 -201 42 -108 l 51 228 l 73 228 l 77 62 b 174 -100 80 -62 110 -100 b 248 48 219 -100 248 -71 m 248 708 b 188 841 248 824 221 841 b 147 753 154 841 147 807 l 147 443 b 182 363 147 387 157 363 b 248 614 215 363 248 469 l 248 708 "}," ":{"ha":225,"x_min":0,"x_max":0,"o":""},"A":{"ha":444,"x_min":0,"x_max":0,"o":"m 0 0 l 170 971 l 103 1127 l 256 1127 l 444 0 l 315 0 l 275 316 l 159 316 l 139 0 m 162 347 l 270 347 l 242 571 l 213 880 l 196 880 "},"B":{"ha":446,"x_min":0,"x_max":0,"o":"m 46 1127 l 185 1127 b 380 932 309 1127 380 1073 l 380 826 b 236 606 380 705 318 648 l 236 591 l 340 600 b 403 372 386 566 403 478 l 403 194 b 185 0 403 54 323 0 l 46 0 m 191 616 b 264 733 250 642 264 679 l 264 894 b 174 1022 264 994 241 1022 l 162 1022 l 162 603 l 191 616 m 205 569 b 162 554 188 569 174 563 l 162 105 l 174 105 b 287 233 258 105 287 133 l 287 468 b 205 569 287 537 259 569 "},"C":{"ha":364,"x_min":0,"x_max":0,"o":"m 301 991 b 211 1037 301 1025 276 1037 b 162 949 171 1037 162 1003 l 162 218 b 225 90 162 106 194 90 b 284 247 265 90 281 148 l 289 429 l 310 429 l 315 242 b 181 -15 318 96 273 -15 b 46 165 93 -15 46 32 l 46 934 b 211 1142 46 1085 122 1142 b 330 998 292 1142 330 1094 b 299 656 330 920 327 812 l 182 656 b 301 991 290 887 301 948 "},"D":{"ha":441,"x_min":0,"x_max":0,"o":"m 46 1127 l 185 1127 b 395 932 318 1127 395 1073 l 395 208 b 165 0 395 57 290 0 l 46 0 m 185 105 b 279 193 261 105 279 139 l 279 894 b 174 1022 279 994 252 1022 l 162 1022 l 162 105 l 185 105 "},"E":{"ha":352,"x_min":0,"x_max":0,"o":"m 46 1127 l 313 1127 l 313 1026 l 162 1026 l 162 611 l 272 611 l 272 577 l 162 577 l 162 100 l 329 100 l 329 0 l 46 0 "},"F":{"ha":329,"x_min":0,"x_max":0,"o":"m 46 0 l 46 1127 l 313 1127 l 313 1026 l 162 1026 l 162 552 l 272 552 l 272 519 l 162 519 l 162 0 "},"G":{"ha":406,"x_min":0,"x_max":0,"o":"m 199 491 l 390 491 l 390 460 l 389 460 b 350 423 356 460 350 454 l 350 -15 l 333 -15 l 293 165 l 278 165 b 151 -15 259 43 221 -15 b 46 165 85 -15 46 32 l 46 934 b 219 1142 46 1085 125 1142 b 338 998 299 1142 338 1094 b 307 656 338 920 335 812 l 190 656 b 309 991 298 887 309 948 b 219 1037 309 1025 284 1037 b 162 949 173 1037 162 1003 l 162 218 b 207 90 162 106 184 90 b 258 247 241 90 258 139 l 258 460 l 199 460 "},"H":{"ha":455,"x_min":0,"x_max":0,"o":"m 162 608 l 293 608 l 293 1127 l 409 1127 l 409 0 l 293 0 l 293 577 l 162 577 l 162 0 l 46 0 l 46 1127 l 162 1127 "},"I":{"ha":208,"x_min":0,"x_max":0,"o":"m 162 0 l 46 0 l 46 1127 l 162 1127 "},"J":{"ha":224,"x_min":0,"x_max":0,"o":"m 54 1127 l 170 1127 l 170 215 b -103 -201 170 -26 15 -201 l -137 -201 l -137 -66 b -20 -88 -110 -79 -69 -88 b 54 -29 25 -88 54 -76 "},"K":{"ha":429,"x_min":0,"x_max":0,"o":"m 162 1002 l 125 637 l 140 634 l 282 1127 l 421 1127 l 421 1023 l 387 1014 b 215 742 302 991 273 895 b 174 617 196 693 182 653 l 185 606 l 319 619 l 421 0 l 296 0 l 239 437 b 167 574 224 557 208 582 b 162 512 164 554 162 534 l 162 0 l 46 0 l 46 1127 l 162 1127 "},"L":{"ha":344,"x_min":0,"x_max":0,"o":"m 162 100 l 329 100 l 329 0 l 46 0 l 46 1127 l 162 1127 "},"M":{"ha":551,"x_min":0,"x_max":0,"o":"m 293 397 l 310 397 l 400 1127 l 497 1127 l 512 0 l 394 0 l 414 806 l 397 806 l 298 77 l 262 77 l 134 806 l 119 806 l 160 0 l 39 0 l 54 1127 l 170 1127 "},"N":{"ha":432,"x_min":0,"x_max":0,"o":"m 296 190 l 315 190 l 293 546 l 282 1127 l 394 1127 l 394 0 l 284 0 l 136 937 l 117 937 l 139 580 l 148 0 l 39 0 l 39 1127 l 148 1127 "},"O":{"ha":441,"x_min":0,"x_max":0,"o":"m 211 -15 b 46 165 105 -15 46 32 l 46 934 b 230 1142 46 1085 130 1142 b 395 961 338 1142 395 1094 l 395 193 b 211 -15 395 42 312 -15 m 219 1037 b 162 949 173 1037 162 1003 l 162 218 b 230 90 162 106 193 90 b 279 177 270 90 279 123 l 279 909 b 219 1037 279 1020 250 1037 "},"P":{"ha":441,"x_min":0,"x_max":0,"o":"m 46 1127 l 185 1127 b 395 932 318 1127 395 1073 l 395 532 b 165 324 395 381 290 324 l 162 324 l 162 0 l 46 0 m 185 429 b 279 517 261 429 279 463 l 279 894 b 174 1022 279 994 252 1022 l 162 1022 l 162 429 l 185 429 "},"Q":{"ha":460,"x_min":0,"x_max":0,"o":"m 211 0 b 46 181 105 0 46 48 l 46 934 b 230 1142 46 1085 130 1142 b 395 961 338 1142 395 1094 l 395 252 b 252 42 395 133 336 52 l 252 26 b 452 194 319 28 384 56 l 452 0 l 211 0 m 219 1037 b 162 949 173 1037 162 1003 l 162 233 b 230 105 162 122 193 105 b 279 228 270 105 279 153 l 279 909 b 219 1037 279 1020 250 1037 "},"R":{"ha":441,"x_min":0,"x_max":0,"o":"m 46 1127 l 185 1127 b 395 932 318 1127 395 1073 l 395 671 b 236 452 395 549 326 494 l 238 434 l 332 446 l 418 0 l 301 0 l 242 370 b 162 407 236 409 210 429 l 162 0 l 46 0 m 191 461 b 279 579 261 491 279 525 l 279 894 b 174 1022 279 994 252 1022 l 162 1022 l 162 449 l 191 461 "},"S":{"ha":375,"x_min":0,"x_max":0,"o":"m 349 174 b 170 -15 349 42 267 -15 b 35 128 79 -15 35 32 b 52 424 35 227 39 340 l 164 424 b 65 147 94 292 65 196 b 170 90 65 102 94 90 b 233 160 221 90 233 120 b 28 948 233 364 28 725 b 207 1142 28 1085 110 1142 b 326 998 287 1142 326 1094 b 309 718 326 940 326 823 l 207 718 b 296 983 276 886 296 941 b 207 1037 296 1025 272 1037 b 144 966 156 1037 144 1006 b 349 174 144 792 349 353 "},"T":{"ha":387,"x_min":0,"x_max":0,"o":"m 380 1127 l 380 1026 l 252 1026 l 252 0 l 136 0 l 136 1026 l 8 1026 l 8 1127 "},"U":{"ha":441,"x_min":0,"x_max":0,"o":"m 395 1127 l 395 193 b 211 -15 395 42 312 -15 b 46 165 105 -15 46 32 l 46 1127 l 162 1127 l 162 218 b 230 90 162 106 193 90 b 279 177 270 90 279 123 l 279 1127 "},"V":{"ha":429,"x_min":0,"x_max":0,"o":"m 191 647 l 221 338 l 238 338 l 290 1127 l 429 1127 l 231 0 l 188 0 l 0 1127 l 130 1127 "},"W":{"ha":645,"x_min":0,"x_max":0,"o":"m 191 647 l 207 338 l 224 338 l 285 1127 l 361 1127 l 407 647 l 437 338 l 454 338 l 506 1127 l 645 1127 l 448 0 l 404 0 l 309 755 l 298 755 l 231 0 l 188 0 l 0 1127 l 130 1127 "},"X":{"ha":409,"x_min":0,"x_max":0,"o":"m 0 0 l 154 588 l 6 1127 l 136 1127 l 187 895 l 224 696 l 241 696 l 276 1127 l 406 1127 l 261 613 l 409 0 l 279 0 l 228 261 l 191 506 l 177 506 l 130 0 "},"Y":{"ha":429,"x_min":0,"x_max":0,"o":"m 191 699 l 221 426 l 238 426 l 290 1127 l 429 1127 l 269 312 l 269 0 l 153 0 l 153 313 l 0 1127 l 130 1127 "},"Z":{"ha":349,"x_min":0,"x_max":0,"o":"m 323 1127 l 130 113 l 139 100 l 335 100 l 335 0 l 9 0 l 9 2 l 8 0 l 201 1014 l 191 1026 l 43 1026 l 43 1127 "},"À":{"ha":444,"x_min":0,"x_max":0,"o":"m 88 1312 l 188 1312 l 185 1296 b 319 1176 174 1242 221 1191 l 319 1167 b 88 1296 151 1168 88 1210 m 0 0 l 170 971 l 103 1127 l 256 1127 l 444 0 l 315 0 l 275 316 l 159 316 l 139 0 m 162 347 l 270 347 l 242 571 l 213 880 l 196 880 "},"Á":{"ha":444,"x_min":0,"x_max":0,"o":"m 332 1296 b 100 1167 332 1210 269 1168 l 100 1176 b 235 1296 199 1191 245 1242 l 231 1312 l 332 1312 l 332 1296 m 0 0 l 170 971 l 103 1127 l 256 1127 l 444 0 l 315 0 l 275 316 l 159 316 l 139 0 m 162 347 l 270 347 l 242 571 l 213 880 l 196 880 "},"Â":{"ha":444,"x_min":0,"x_max":0,"o":"m 207 1227 b 59 1167 207 1191 165 1167 l 59 1176 b 157 1281 125 1184 157 1218 l 157 1312 l 267 1312 l 267 1281 b 366 1176 267 1218 299 1184 l 366 1167 b 218 1227 259 1167 218 1191 l 207 1227 m 0 0 l 170 971 l 103 1127 l 256 1127 l 444 0 l 315 0 l 275 316 l 159 316 l 139 0 m 162 347 l 270 347 l 242 571 l 213 880 l 196 880 "},"Ã":{"ha":444,"x_min":0,"x_max":0,"o":"m 292 1168 b 127 1235 248 1168 171 1235 b 66 1167 99 1235 80 1211 l 56 1167 b 133 1315 56 1275 80 1315 b 298 1248 176 1315 253 1248 b 358 1316 326 1248 344 1272 l 369 1316 b 292 1168 369 1208 344 1168 m 0 0 l 170 971 l 103 1127 l 256 1127 l 444 0 l 315 0 l 275 316 l 159 316 l 139 0 m 162 347 l 270 347 l 242 571 l 213 880 l 196 880 "},"Ä":{"ha":444,"x_min":0,"x_max":0,"o":"m 60 1281 l 193 1281 l 193 1210 l 60 1210 m 230 1281 l 363 1281 l 363 1210 l 230 1210 m 0 0 l 170 971 l 103 1127 l 256 1127 l 444 0 l 315 0 l 275 316 l 159 316 l 139 0 m 162 347 l 270 347 l 242 571 l 213 880 l 196 880 "},"Å":{"ha":444,"x_min":0,"x_max":0,"o":"m 211 1167 b 113 1250 140 1167 113 1194 b 211 1333 113 1306 140 1333 b 310 1250 282 1333 310 1306 b 211 1167 310 1194 282 1167 m 211 1208 b 252 1250 238 1208 252 1225 b 211 1292 252 1275 238 1292 b 171 1250 185 1292 171 1275 b 211 1208 171 1225 185 1208 m 0 0 l 170 971 l 103 1127 l 256 1127 l 444 0 l 315 0 l 275 316 l 159 316 l 139 0 m 162 347 l 270 347 l 242 571 l 213 880 l 196 880 "},"Ā":{"ha":444,"x_min":0,"x_max":0,"o":"m 60 1281 l 363 1281 l 363 1210 l 60 1210 m 0 0 l 170 971 l 103 1127 l 256 1127 l 444 0 l 315 0 l 275 316 l 159 316 l 139 0 m 162 347 l 270 347 l 242 571 l 213 880 l 196 880 "},"Ă":{"ha":444,"x_min":0,"x_max":0,"o":"m 211 1241 b 326 1312 281 1241 316 1256 l 335 1312 b 211 1167 333 1199 293 1167 b 88 1312 130 1167 90 1199 l 97 1312 b 211 1241 106 1256 142 1241 m 0 0 l 170 971 l 103 1127 l 256 1127 l 444 0 l 315 0 l 275 316 l 159 316 l 139 0 m 162 347 l 270 347 l 242 571 l 213 880 l 196 880 "},"Ą":{"ha":444,"x_min":0,"x_max":0,"o":"m 0 0 l 170 971 l 103 1127 l 256 1127 l 444 0 l 443 0 b 395 -83 410 -37 395 -62 b 427 -116 395 -108 407 -116 b 477 -103 446 -116 466 -110 l 485 -111 b 390 -201 465 -153 427 -201 b 324 -136 358 -201 324 -179 b 407 -15 324 -91 350 -59 l 398 0 l 315 0 l 275 316 l 159 316 l 139 0 m 162 347 l 270 347 l 242 571 l 213 880 l 196 880 "},"Æ":{"ha":543,"x_min":0,"x_max":0,"o":"m 0 0 l 170 971 l 103 1127 l 505 1127 l 505 1026 l 272 1026 l 335 611 l 463 611 l 463 577 l 341 577 l 414 100 l 520 100 l 520 0 l 315 0 l 275 316 l 159 316 l 139 0 m 162 347 l 270 347 l 242 571 l 213 880 l 196 880 "},"Ç":{"ha":364,"x_min":0,"x_max":0,"o":"m 194 -201 b 108 -142 147 -201 122 -168 l 114 -134 b 160 -150 127 -144 136 -150 b 198 -114 185 -150 198 -131 b 173 -82 198 -94 188 -82 b 144 -96 160 -82 154 -86 l 134 -88 l 170 -19 l 165 -15 b 46 165 88 -9 46 40 l 46 934 b 211 1142 46 1085 122 1142 b 330 998 292 1142 330 1094 b 299 656 330 920 327 812 l 182 656 b 301 991 290 887 301 948 b 211 1037 301 1025 276 1037 b 162 949 171 1037 162 1003 l 162 218 b 225 90 162 106 194 90 b 284 247 265 90 281 148 l 289 429 l 310 429 l 315 242 b 194 -14 318 103 278 -3 l 174 -54 l 181 -59 b 210 -54 190 -56 201 -54 b 275 -116 245 -54 275 -73 b 194 -201 275 -165 238 -201 "},"Ć":{"ha":364,"x_min":0,"x_max":0,"o":"m 319 1296 b 88 1167 319 1210 256 1168 l 88 1176 b 222 1296 187 1191 233 1242 l 219 1312 l 319 1312 l 319 1296 m 301 991 b 211 1037 301 1025 276 1037 b 162 949 171 1037 162 1003 l 162 218 b 225 90 162 106 194 90 b 284 247 265 90 281 148 l 289 429 l 310 429 l 315 242 b 181 -15 318 96 273 -15 b 46 165 93 -15 46 32 l 46 934 b 211 1142 46 1085 122 1142 b 330 998 292 1142 330 1094 b 299 656 330 920 327 812 l 182 656 b 301 991 290 887 301 948 "},"Ĉ":{"ha":364,"x_min":0,"x_max":0,"o":"m 216 1227 b 68 1167 216 1191 174 1167 l 68 1176 b 167 1281 134 1184 167 1218 l 167 1312 l 276 1312 l 276 1281 b 375 1176 276 1218 309 1184 l 375 1167 b 227 1227 269 1167 227 1191 l 216 1227 m 301 991 b 211 1037 301 1025 276 1037 b 162 949 171 1037 162 1003 l 162 218 b 225 90 162 106 194 90 b 284 247 265 90 281 148 l 289 429 l 310 429 l 315 242 b 181 -15 318 96 273 -15 b 46 165 93 -15 46 32 l 46 934 b 211 1142 46 1085 122 1142 b 330 998 292 1142 330 1094 b 299 656 330 920 327 812 l 182 656 b 301 991 290 887 301 948 "},"Č":{"ha":364,"x_min":0,"x_max":0,"o":"m 227 1258 b 375 1318 227 1293 269 1318 l 375 1309 b 276 1204 309 1301 276 1267 l 276 1173 l 167 1173 l 167 1204 b 68 1309 167 1267 134 1301 l 68 1318 b 216 1258 174 1318 216 1293 m 301 991 b 211 1037 301 1025 276 1037 b 162 949 171 1037 162 1003 l 162 218 b 225 90 162 106 194 90 b 284 247 265 90 281 148 l 289 429 l 310 429 l 315 242 b 181 -15 318 96 273 -15 b 46 165 93 -15 46 32 l 46 934 b 211 1142 46 1085 122 1142 b 330 998 292 1142 330 1094 b 299 656 330 920 327 812 l 182 656 b 301 991 290 887 301 948 "},"Ċ":{"ha":364,"x_min":0,"x_max":0,"o":"m 125 1282 l 289 1282 l 289 1204 l 125 1204 m 301 991 b 211 1037 301 1025 276 1037 b 162 949 171 1037 162 1003 l 162 218 b 225 90 162 106 194 90 b 284 247 265 90 281 148 l 289 429 l 310 429 l 315 242 b 181 -15 318 96 273 -15 b 46 165 93 -15 46 32 l 46 934 b 211 1142 46 1085 122 1142 b 330 998 292 1142 330 1094 b 299 656 330 920 327 812 l 182 656 b 301 991 290 887 301 948 "},"Ď":{"ha":441,"x_min":0,"x_max":0,"o":"m 224 1258 b 372 1318 224 1293 265 1318 l 372 1309 b 273 1204 306 1301 273 1267 l 273 1173 l 164 1173 l 164 1204 b 65 1309 164 1267 131 1301 l 65 1318 b 213 1258 171 1318 213 1293 m 46 1127 l 185 1127 b 395 932 318 1127 395 1073 l 395 208 b 165 0 395 57 290 0 l 46 0 m 185 105 b 279 193 261 105 279 139 l 279 894 b 174 1022 279 994 252 1022 l 162 1022 l 162 105 l 185 105 "},"Ð":{"ha":441,"x_min":0,"x_max":0,"o":"m 0 603 l 46 603 l 46 1127 l 185 1127 b 395 932 318 1127 395 1073 l 395 208 b 165 0 395 57 290 0 l 46 0 l 46 573 l 0 573 m 185 105 b 279 193 261 105 279 139 l 279 894 b 174 1022 279 994 252 1022 l 162 1022 l 162 603 l 222 603 l 222 573 l 162 573 l 162 105 l 185 105 "},"È":{"ha":352,"x_min":0,"x_max":0,"o":"m 73 1312 l 173 1312 l 170 1296 b 304 1176 159 1242 205 1191 l 304 1167 b 73 1296 136 1168 73 1210 m 46 1127 l 313 1127 l 313 1026 l 162 1026 l 162 611 l 272 611 l 272 577 l 162 577 l 162 100 l 329 100 l 329 0 l 46 0 "},"É":{"ha":352,"x_min":0,"x_max":0,"o":"m 316 1296 b 85 1167 316 1210 253 1168 l 85 1176 b 219 1296 184 1191 230 1242 l 216 1312 l 316 1312 l 316 1296 m 46 1127 l 313 1127 l 313 1026 l 162 1026 l 162 611 l 272 611 l 272 577 l 162 577 l 162 100 l 329 100 l 329 0 l 46 0 "},"Ê":{"ha":352,"x_min":0,"x_max":0,"o":"m 168 1227 b 20 1167 168 1191 127 1167 l 20 1176 b 119 1281 86 1184 119 1218 l 119 1312 l 228 1312 l 228 1281 b 327 1176 228 1218 261 1184 l 327 1167 b 179 1227 221 1167 179 1191 l 168 1227 m 46 1127 l 313 1127 l 313 1026 l 162 1026 l 162 611 l 272 611 l 272 577 l 162 577 l 162 100 l 329 100 l 329 0 l 46 0 "},"Ë":{"ha":352,"x_min":0,"x_max":0,"o":"m 29 1281 l 162 1281 l 162 1210 l 29 1210 m 199 1281 l 332 1281 l 332 1210 l 199 1210 m 46 1127 l 313 1127 l 313 1026 l 162 1026 l 162 611 l 272 611 l 272 577 l 162 577 l 162 100 l 329 100 l 329 0 l 46 0 "},"Ē":{"ha":352,"x_min":0,"x_max":0,"o":"m 26 1281 l 329 1281 l 329 1210 l 26 1210 m 46 1127 l 313 1127 l 313 1026 l 162 1026 l 162 611 l 272 611 l 272 577 l 162 577 l 162 100 l 329 100 l 329 0 l 46 0 "},"Ĕ":{"ha":352,"x_min":0,"x_max":0,"o":"m 181 1241 b 295 1312 250 1241 285 1256 l 304 1312 b 181 1167 302 1199 262 1167 b 57 1312 99 1167 59 1199 l 66 1312 b 181 1241 76 1256 111 1241 m 46 1127 l 313 1127 l 313 1026 l 162 1026 l 162 611 l 272 611 l 272 577 l 162 577 l 162 100 l 329 100 l 329 0 l 46 0 "},"Ė":{"ha":352,"x_min":0,"x_max":0,"o":"m 99 1289 l 262 1289 l 262 1210 l 99 1210 m 46 1127 l 313 1127 l 313 1026 l 162 1026 l 162 611 l 272 611 l 272 577 l 162 577 l 162 100 l 329 100 l 329 0 l 46 0 "},"Ę":{"ha":352,"x_min":0,"x_max":0,"o":"m 276 -201 b 210 -136 244 -201 210 -179 b 293 -15 210 -91 236 -59 l 284 0 l 46 0 l 46 1127 l 313 1127 l 313 1026 l 162 1026 l 162 611 l 272 611 l 272 577 l 162 577 l 162 100 l 329 100 l 329 0 b 281 -83 296 -37 281 -62 b 313 -116 281 -108 293 -116 b 363 -103 332 -116 352 -110 l 370 -111 b 276 -201 350 -153 313 -201 "},"Ě":{"ha":352,"x_min":0,"x_max":0,"o":"m 202 1258 b 350 1318 202 1293 244 1318 l 350 1309 b 252 1204 284 1301 252 1267 l 252 1173 l 142 1173 l 142 1204 b 43 1309 142 1267 110 1301 l 43 1318 b 191 1258 150 1318 191 1293 m 46 1127 l 313 1127 l 313 1026 l 162 1026 l 162 611 l 272 611 l 272 577 l 162 577 l 162 100 l 329 100 l 329 0 l 46 0 "},"Ĝ":{"ha":406,"x_min":0,"x_max":0,"o":"m 208 1227 b 60 1167 208 1191 167 1167 l 60 1176 b 159 1281 127 1184 159 1218 l 159 1312 l 269 1312 l 269 1281 b 367 1176 269 1218 301 1184 l 367 1167 b 219 1227 261 1167 219 1191 l 208 1227 m 199 491 l 390 491 l 390 460 l 389 460 b 350 423 356 460 350 454 l 350 -15 l 333 -15 l 293 165 l 278 165 b 151 -15 259 43 221 -15 b 46 165 85 -15 46 32 l 46 934 b 219 1142 46 1085 125 1142 b 338 998 299 1142 338 1094 b 307 656 338 920 335 812 l 190 656 b 309 991 298 887 309 948 b 219 1037 309 1025 284 1037 b 162 949 173 1037 162 1003 l 162 218 b 207 90 162 106 184 90 b 258 247 241 90 258 139 l 258 460 l 199 460 "},"Ġ":{"ha":406,"x_min":0,"x_max":0,"o":"m 120 1289 l 284 1289 l 284 1210 l 120 1210 m 199 491 l 390 491 l 390 460 l 389 460 b 350 423 356 460 350 454 l 350 -15 l 333 -15 l 293 165 l 278 165 b 151 -15 259 43 221 -15 b 46 165 85 -15 46 32 l 46 934 b 219 1142 46 1085 125 1142 b 338 998 299 1142 338 1094 b 307 656 338 920 335 812 l 190 656 b 309 991 298 887 309 948 b 219 1037 309 1025 284 1037 b 162 949 173 1037 162 1003 l 162 218 b 207 90 162 106 184 90 b 258 247 241 90 258 139 l 258 460 l 199 460 "},"Ĥ":{"ha":455,"x_min":0,"x_max":0,"o":"m 224 1227 b 76 1167 224 1191 182 1167 l 76 1176 b 174 1281 142 1184 174 1218 l 174 1312 l 284 1312 l 284 1281 b 383 1176 284 1218 316 1184 l 383 1167 b 235 1227 276 1167 235 1191 l 224 1227 m 162 608 l 293 608 l 293 1127 l 409 1127 l 409 0 l 293 0 l 293 577 l 162 577 l 162 0 l 46 0 l 46 1127 l 162 1127 "},"Ì":{"ha":208,"x_min":0,"x_max":0,"o":"m -20 1312 l 80 1312 l 77 1296 b 211 1176 66 1242 113 1191 l 211 1167 b -20 1296 43 1168 -20 1210 m 162 0 l 46 0 l 46 1127 l 162 1127 "},"Í":{"ha":208,"x_min":0,"x_max":0,"o":"m 224 1296 b -8 1167 224 1210 160 1168 l -8 1176 b 127 1296 91 1191 137 1242 l 123 1312 l 224 1312 l 224 1296 m 162 0 l 46 0 l 46 1127 l 162 1127 "},"Î":{"ha":208,"x_min":0,"x_max":0,"o":"m 99 1227 b -49 1167 99 1191 57 1167 l -49 1176 b 49 1281 17 1184 49 1218 l 49 1312 l 159 1312 l 159 1281 b 258 1176 159 1218 191 1184 l 258 1167 b 110 1227 151 1167 110 1191 l 99 1227 m 162 0 l 46 0 l 46 1127 l 162 1127 "},"Ï":{"ha":208,"x_min":0,"x_max":0,"o":"m -48 1281 l 85 1281 l 85 1210 l -48 1210 m 122 1281 l 255 1281 l 255 1210 l 122 1210 m 162 0 l 46 0 l 46 1127 l 162 1127 "},"Ĩ":{"ha":208,"x_min":0,"x_max":0,"o":"m 184 1168 b 19 1235 140 1168 63 1235 b -42 1167 -9 1235 -28 1211 l -52 1167 b 25 1315 -52 1275 -28 1315 b 190 1248 68 1315 145 1248 b 250 1316 218 1248 236 1272 l 261 1316 b 184 1168 261 1208 236 1168 m 162 0 l 46 0 l 46 1127 l 162 1127 "},"Ī":{"ha":208,"x_min":0,"x_max":0,"o":"m -48 1281 l 255 1281 l 255 1210 l -48 1210 m 162 0 l 46 0 l 46 1127 l 162 1127 "},"Ĭ":{"ha":208,"x_min":0,"x_max":0,"o":"m 103 1241 b 218 1312 173 1241 208 1256 l 227 1312 b 103 1167 225 1199 185 1167 b -20 1312 22 1167 -19 1199 l -11 1312 b 103 1241 -2 1256 34 1241 m 162 0 l 46 0 l 46 1127 l 162 1127 "},"Į":{"ha":208,"x_min":0,"x_max":0,"o":"m 86 -201 b 20 -136 54 -201 20 -179 b 103 -15 20 -91 46 -59 l 94 0 l 46 0 l 46 1127 l 162 1127 l 162 0 l 139 0 b 91 -83 106 -37 91 -62 b 123 -116 91 -108 103 -116 b 173 -103 142 -116 162 -110 l 181 -111 b 86 -201 160 -153 123 -201 "},"İ":{"ha":208,"x_min":0,"x_max":0,"o":"m 22 1312 l 185 1312 l 185 1233 l 22 1233 m 162 0 l 46 0 l 46 1127 l 162 1127 "},"Ĳ":{"ha":432,"x_min":0,"x_max":0,"o":"m 162 0 l 46 0 l 46 1127 l 162 1127 m 262 1127 l 378 1127 l 378 215 b 105 -201 378 -26 224 -201 l 71 -201 l 71 -66 b 188 -88 99 -79 139 -88 b 262 -29 233 -88 262 -76 "},"Ĵ":{"ha":224,"x_min":0,"x_max":0,"o":"m 106 1227 b -42 1167 106 1191 65 1167 l -42 1176 b 57 1281 25 1184 57 1218 l 57 1312 l 167 1312 l 167 1281 b 265 1176 167 1218 199 1184 l 265 1167 b 117 1227 159 1167 117 1191 l 106 1227 m 54 1127 l 170 1127 l 170 215 b -103 -201 170 -26 15 -201 l -137 -201 l -137 -66 b -20 -88 -110 -79 -69 -88 b 54 -29 25 -88 54 -76 "},"Ĺ":{"ha":344,"x_min":0,"x_max":0,"o":"m 252 1296 b 20 1167 252 1210 188 1168 l 20 1176 b 154 1296 119 1191 165 1242 l 151 1312 l 252 1312 l 252 1296 m 162 100 l 329 100 l 329 0 l 46 0 l 46 1127 l 162 1127 "},"Ľ":{"ha":344,"x_min":0,"x_max":0,"o":"m 162 100 l 329 100 l 329 0 l 46 0 l 46 1127 l 162 1127 m 315 1111 b 218 835 315 966 285 892 l 210 843 b 221 1111 242 894 253 949 l 218 1127 l 315 1127 l 315 1111 "},"Ŀ":{"ha":344,"x_min":0,"x_max":0,"o":"m 162 100 l 329 100 l 329 0 l 46 0 l 46 1127 l 162 1127 m 198 679 l 346 679 l 346 569 l 198 569 "},"Ł":{"ha":344,"x_min":0,"x_max":0,"o":"m 0 497 l 46 526 l 46 1127 l 162 1127 l 162 597 l 284 673 l 284 633 l 162 557 l 162 100 l 329 100 l 329 0 l 46 0 l 46 486 l 0 457 "},"Ñ":{"ha":432,"x_min":0,"x_max":0,"o":"m 296 1173 b 131 1239 253 1173 176 1239 b 71 1171 103 1239 85 1216 l 60 1171 b 137 1319 60 1279 85 1319 b 302 1253 181 1319 258 1253 b 363 1321 330 1253 349 1276 l 373 1321 b 296 1173 373 1213 349 1173 m 296 190 l 315 190 l 293 546 l 282 1127 l 394 1127 l 394 0 l 284 0 l 136 937 l 117 937 l 139 580 l 148 0 l 39 0 l 39 1127 l 148 1127 "},"Ń":{"ha":432,"x_min":0,"x_max":0,"o":"m 353 1296 b 122 1167 353 1210 290 1168 l 122 1176 b 256 1296 221 1191 267 1242 l 253 1312 l 353 1312 l 353 1296 m 296 190 l 315 190 l 293 546 l 282 1127 l 394 1127 l 394 0 l 284 0 l 136 937 l 117 937 l 139 580 l 148 0 l 39 0 l 39 1127 l 148 1127 "},"Ň":{"ha":432,"x_min":0,"x_max":0,"o":"m 224 1258 b 372 1318 224 1293 265 1318 l 372 1309 b 273 1204 306 1301 273 1267 l 273 1173 l 164 1173 l 164 1204 b 65 1309 164 1267 131 1301 l 65 1318 b 213 1258 171 1318 213 1293 m 296 190 l 315 190 l 293 546 l 282 1127 l 394 1127 l 394 0 l 284 0 l 136 937 l 117 937 l 139 580 l 148 0 l 39 0 l 39 1127 l 148 1127 "},"Ò":{"ha":441,"x_min":0,"x_max":0,"o":"m 103 1312 l 204 1312 l 201 1296 b 335 1176 190 1242 236 1191 l 335 1167 b 103 1296 167 1168 103 1210 m 211 -15 b 46 165 105 -15 46 32 l 46 934 b 230 1142 46 1085 130 1142 b 395 961 338 1142 395 1094 l 395 193 b 211 -15 395 42 312 -15 m 219 1037 b 162 949 173 1037 162 1003 l 162 218 b 230 90 162 106 193 90 b 279 177 270 90 279 123 l 279 909 b 219 1037 279 1020 250 1037 "},"Ó":{"ha":441,"x_min":0,"x_max":0,"o":"m 347 1296 b 116 1167 347 1210 284 1168 l 116 1176 b 250 1296 215 1191 261 1242 l 247 1312 l 347 1312 l 347 1296 m 211 -15 b 46 165 105 -15 46 32 l 46 934 b 230 1142 46 1085 130 1142 b 395 961 338 1142 395 1094 l 395 193 b 211 -15 395 42 312 -15 m 219 1037 b 162 949 173 1037 162 1003 l 162 218 b 230 90 162 106 193 90 b 279 177 270 90 279 123 l 279 909 b 219 1037 279 1020 250 1037 "},"Ô":{"ha":441,"x_min":0,"x_max":0,"o":"m 222 1227 b 74 1167 222 1191 181 1167 l 74 1176 b 173 1281 140 1184 173 1218 l 173 1312 l 282 1312 l 282 1281 b 381 1176 282 1218 315 1184 l 381 1167 b 233 1227 275 1167 233 1191 l 222 1227 m 211 -15 b 46 165 105 -15 46 32 l 46 934 b 230 1142 46 1085 130 1142 b 395 961 338 1142 395 1094 l 395 193 b 211 -15 395 42 312 -15 m 219 1037 b 162 949 173 1037 162 1003 l 162 218 b 230 90 162 106 193 90 b 279 177 270 90 279 123 l 279 909 b 219 1037 279 1020 250 1037 "},"Õ":{"ha":441,"x_min":0,"x_max":0,"o":"m 307 1168 b 142 1235 264 1168 187 1235 b 82 1167 114 1235 96 1211 l 71 1167 b 148 1315 71 1275 96 1315 b 313 1248 191 1315 269 1248 b 373 1316 341 1248 360 1272 l 384 1316 b 307 1168 384 1208 360 1168 m 211 -15 b 46 165 105 -15 46 32 l 46 934 b 230 1142 46 1085 130 1142 b 395 961 338 1142 395 1094 l 395 193 b 211 -15 395 42 312 -15 m 219 1037 b 162 949 173 1037 162 1003 l 162 218 b 230 90 162 106 193 90 b 279 177 270 90 279 123 l 279 909 b 219 1037 279 1020 250 1037 "},"Ö":{"ha":441,"x_min":0,"x_max":0,"o":"m 76 1281 l 208 1281 l 208 1210 l 76 1210 m 245 1281 l 378 1281 l 378 1210 l 245 1210 m 211 -15 b 46 165 105 -15 46 32 l 46 934 b 230 1142 46 1085 130 1142 b 395 961 338 1142 395 1094 l 395 193 b 211 -15 395 42 312 -15 m 219 1037 b 162 949 173 1037 162 1003 l 162 218 b 230 90 162 106 193 90 b 279 177 270 90 279 123 l 279 909 b 219 1037 279 1020 250 1037 "},"Ō":{"ha":441,"x_min":0,"x_max":0,"o":"m 76 1281 l 378 1281 l 378 1210 l 76 1210 m 211 -15 b 46 165 105 -15 46 32 l 46 934 b 230 1142 46 1085 130 1142 b 395 961 338 1142 395 1094 l 395 193 b 211 -15 395 42 312 -15 m 219 1037 b 162 949 173 1037 162 1003 l 162 218 b 230 90 162 106 193 90 b 279 177 270 90 279 123 l 279 909 b 219 1037 279 1020 250 1037 "},"Ŏ":{"ha":441,"x_min":0,"x_max":0,"o":"m 227 1241 b 341 1312 296 1241 332 1256 l 350 1312 b 227 1167 349 1199 309 1167 b 103 1312 145 1167 105 1199 l 113 1312 b 227 1241 122 1256 157 1241 m 211 -15 b 46 165 105 -15 46 32 l 46 934 b 230 1142 46 1085 130 1142 b 395 961 338 1142 395 1094 l 395 193 b 211 -15 395 42 312 -15 m 219 1037 b 162 949 173 1037 162 1003 l 162 218 b 230 90 162 106 193 90 b 279 177 270 90 279 123 l 279 909 b 219 1037 279 1020 250 1037 "},"Ő":{"ha":441,"x_min":0,"x_max":0,"o":"m 231 1296 b 85 1167 231 1210 191 1168 l 85 1176 b 142 1296 130 1182 153 1244 l 139 1312 l 231 1312 l 231 1296 m 386 1296 b 239 1167 386 1210 346 1168 l 239 1176 b 296 1296 284 1182 307 1244 l 293 1312 l 386 1312 l 386 1296 m 211 -15 b 46 165 105 -15 46 32 l 46 934 b 230 1142 46 1085 130 1142 b 395 961 338 1142 395 1094 l 395 193 b 211 -15 395 42 312 -15 m 219 1037 b 162 949 173 1037 162 1003 l 162 218 b 230 90 162 106 193 90 b 279 177 270 90 279 123 l 279 909 b 219 1037 279 1020 250 1037 "},"Ø":{"ha":441,"x_min":0,"x_max":0,"o":"m 0 0 l 48 131 b 46 165 46 142 46 153 l 46 934 b 230 1142 46 1085 130 1142 b 381 1054 307 1142 358 1117 l 407 1127 l 441 1127 l 394 995 b 395 961 395 985 395 974 l 395 193 b 211 -15 395 42 312 -15 b 60 73 134 -15 83 9 l 34 0 m 219 1037 b 162 949 173 1037 162 1003 l 162 448 l 279 772 l 279 909 b 219 1037 279 1020 250 1037 m 162 218 b 230 90 162 106 193 90 b 279 177 270 90 279 123 l 279 679 l 162 355 l 162 218 "},"Œ":{"ha":585,"x_min":0,"x_max":0,"o":"m 46 918 b 276 1127 46 1069 151 1127 l 546 1127 l 546 1026 l 395 1026 l 395 608 l 505 608 l 505 577 l 395 577 l 395 100 l 562 100 l 562 0 l 256 0 b 46 194 123 0 46 54 l 46 918 m 256 1022 b 162 934 181 1022 162 988 l 162 233 b 267 105 162 133 190 105 l 279 105 l 279 1022 l 256 1022 "},"Ŕ":{"ha":441,"x_min":0,"x_max":0,"o":"m 358 1296 b 127 1167 358 1210 295 1168 l 127 1176 b 261 1296 225 1191 272 1242 l 258 1312 l 358 1312 l 358 1296 m 46 1127 l 185 1127 b 395 932 318 1127 395 1073 l 395 671 b 236 452 395 549 326 494 l 238 434 l 332 446 l 418 0 l 301 0 l 242 370 b 162 407 236 409 210 429 l 162 0 l 46 0 m 191 461 b 279 579 261 491 279 525 l 279 894 b 174 1022 279 994 252 1022 l 162 1022 l 162 449 l 191 461 "},"Ś":{"ha":375,"x_min":0,"x_max":0,"o":"m 316 1296 b 85 1167 316 1210 253 1168 l 85 1176 b 219 1296 184 1191 230 1242 l 216 1312 l 316 1312 l 316 1296 m 349 174 b 170 -15 349 42 267 -15 b 35 128 79 -15 35 32 b 52 424 35 227 39 340 l 164 424 b 65 147 94 292 65 196 b 170 90 65 102 94 90 b 233 160 221 90 233 120 b 28 948 233 364 28 725 b 207 1142 28 1085 110 1142 b 326 998 287 1142 326 1094 b 309 718 326 940 326 823 l 207 718 b 296 983 276 886 296 941 b 207 1037 296 1025 272 1037 b 144 966 156 1037 144 1006 b 349 174 144 792 349 353 "},"Ŝ":{"ha":375,"x_min":0,"x_max":0,"o":"m 191 1227 b 43 1167 191 1191 150 1167 l 43 1176 b 142 1281 110 1184 142 1218 l 142 1312 l 252 1312 l 252 1281 b 350 1176 252 1218 284 1184 l 350 1167 b 202 1227 244 1167 202 1191 l 191 1227 m 349 174 b 170 -15 349 42 267 -15 b 35 128 79 -15 35 32 b 52 424 35 227 39 340 l 164 424 b 65 147 94 292 65 196 b 170 90 65 102 94 90 b 233 160 221 90 233 120 b 28 948 233 364 28 725 b 207 1142 28 1085 110 1142 b 326 998 287 1142 326 1094 b 309 718 326 940 326 823 l 207 718 b 296 983 276 886 296 941 b 207 1037 296 1025 272 1037 b 144 966 156 1037 144 1006 b 349 174 144 792 349 353 "},"Ş":{"ha":375,"x_min":0,"x_max":0,"o":"m 205 -201 b 119 -142 157 -201 133 -168 l 125 -134 b 171 -150 137 -144 147 -150 b 208 -114 196 -150 208 -131 b 184 -82 208 -94 199 -82 b 154 -96 171 -82 165 -86 l 145 -88 l 181 -19 l 176 -15 b 170 -15 174 -15 171 -15 b 35 128 79 -15 35 32 b 52 424 35 227 39 340 l 164 424 b 65 147 94 292 65 196 b 170 90 65 102 94 90 b 233 160 221 90 233 120 b 28 948 233 364 28 725 b 207 1142 28 1085 110 1142 b 326 998 287 1142 326 1094 b 309 718 326 940 326 823 l 207 718 b 296 983 276 886 296 941 b 207 1037 296 1025 272 1037 b 144 966 156 1037 144 1006 b 349 174 144 792 349 353 b 207 -12 349 59 287 0 l 185 -54 l 191 -59 b 221 -54 201 -56 211 -54 b 285 -116 256 -54 285 -73 b 205 -201 285 -165 248 -201 "},"Š":{"ha":375,"x_min":0,"x_max":0,"o":"m 202 1258 b 350 1318 202 1293 244 1318 l 350 1309 b 252 1204 284 1301 252 1267 l 252 1173 l 142 1173 l 142 1204 b 43 1309 142 1267 110 1301 l 43 1318 b 191 1258 150 1318 191 1293 m 349 174 b 170 -15 349 42 267 -15 b 35 128 79 -15 35 32 b 52 424 35 227 39 340 l 164 424 b 65 147 94 292 65 196 b 170 90 65 102 94 90 b 233 160 221 90 233 120 b 28 948 233 364 28 725 b 207 1142 28 1085 110 1142 b 326 998 287 1142 326 1094 b 309 718 326 940 326 823 l 207 718 b 296 983 276 886 296 941 b 207 1037 296 1025 272 1037 b 144 966 156 1037 144 1006 b 349 174 144 792 349 353 "},"Ù":{"ha":441,"x_min":0,"x_max":0,"o":"m 99 1312 l 199 1312 l 196 1296 b 330 1176 185 1242 231 1191 l 330 1167 b 99 1296 162 1168 99 1210 m 395 1127 l 395 193 b 211 -15 395 42 312 -15 b 46 165 105 -15 46 32 l 46 1127 l 162 1127 l 162 218 b 230 90 162 106 193 90 b 279 177 270 90 279 123 l 279 1127 "},"Ú":{"ha":441,"x_min":0,"x_max":0,"o":"m 343 1296 b 111 1167 343 1210 279 1168 l 111 1176 b 245 1296 210 1191 256 1242 l 242 1312 l 343 1312 l 343 1296 m 395 1127 l 395 193 b 211 -15 395 42 312 -15 b 46 165 105 -15 46 32 l 46 1127 l 162 1127 l 162 218 b 230 90 162 106 193 90 b 279 177 270 90 279 123 l 279 1127 "},"Û":{"ha":441,"x_min":0,"x_max":0,"o":"m 218 1227 b 69 1167 218 1191 176 1167 l 69 1176 b 168 1281 136 1184 168 1218 l 168 1312 l 278 1312 l 278 1281 b 377 1176 278 1218 310 1184 l 377 1167 b 228 1227 270 1167 228 1191 l 218 1227 m 395 1127 l 395 193 b 211 -15 395 42 312 -15 b 46 165 105 -15 46 32 l 46 1127 l 162 1127 l 162 218 b 230 90 162 106 193 90 b 279 177 270 90 279 123 l 279 1127 "},"Ü":{"ha":441,"x_min":0,"x_max":0,"o":"m 71 1281 l 204 1281 l 204 1210 l 71 1210 m 241 1281 l 373 1281 l 373 1210 l 241 1210 m 395 1127 l 395 193 b 211 -15 395 42 312 -15 b 46 165 105 -15 46 32 l 46 1127 l 162 1127 l 162 218 b 230 90 162 106 193 90 b 279 177 270 90 279 123 l 279 1127 "},"Ũ":{"ha":441,"x_min":0,"x_max":0,"o":"m 302 1168 b 137 1235 259 1168 182 1235 b 77 1167 110 1235 91 1211 l 66 1167 b 144 1315 66 1275 91 1315 b 309 1248 187 1315 264 1248 b 369 1316 336 1248 355 1272 l 380 1316 b 302 1168 380 1208 355 1168 m 395 1127 l 395 193 b 211 -15 395 42 312 -15 b 46 165 105 -15 46 32 l 46 1127 l 162 1127 l 162 218 b 230 90 162 106 193 90 b 279 177 270 90 279 123 l 279 1127 "},"Ū":{"ha":441,"x_min":0,"x_max":0,"o":"m 71 1281 l 373 1281 l 373 1210 l 71 1210 m 395 1127 l 395 193 b 211 -15 395 42 312 -15 b 46 165 105 -15 46 32 l 46 1127 l 162 1127 l 162 218 b 230 90 162 106 193 90 b 279 177 270 90 279 123 l 279 1127 "},"Ŭ":{"ha":441,"x_min":0,"x_max":0,"o":"m 222 1241 b 336 1312 292 1241 327 1256 l 346 1312 b 222 1167 344 1199 304 1167 b 99 1312 140 1167 100 1199 l 108 1312 b 222 1241 117 1256 153 1241 m 395 1127 l 395 193 b 211 -15 395 42 312 -15 b 46 165 105 -15 46 32 l 46 1127 l 162 1127 l 162 218 b 230 90 162 106 193 90 b 279 177 270 90 279 123 l 279 1127 "},"Ů":{"ha":441,"x_min":0,"x_max":0,"o":"m 222 1167 b 123 1250 151 1167 123 1194 b 222 1333 123 1306 151 1333 b 321 1250 293 1333 321 1306 b 222 1167 321 1194 293 1167 m 222 1208 b 262 1250 248 1208 262 1225 b 222 1292 262 1275 248 1292 b 182 1250 196 1292 182 1275 b 222 1208 182 1225 196 1208 m 395 1127 l 395 193 b 211 -15 395 42 312 -15 b 46 165 105 -15 46 32 l 46 1127 l 162 1127 l 162 218 b 230 90 162 106 193 90 b 279 177 270 90 279 123 l 279 1127 "},"Ű":{"ha":441,"x_min":0,"x_max":0,"o":"m 227 1296 b 80 1167 227 1210 187 1168 l 80 1176 b 137 1296 125 1182 148 1244 l 134 1312 l 227 1312 l 227 1296 m 381 1296 b 235 1167 381 1210 341 1168 l 235 1176 b 292 1296 279 1182 302 1244 l 289 1312 l 381 1312 l 381 1296 m 395 1127 l 395 193 b 211 -15 395 42 312 -15 b 46 165 105 -15 46 32 l 46 1127 l 162 1127 l 162 218 b 230 90 162 106 193 90 b 279 177 270 90 279 123 l 279 1127 "},"Ų":{"ha":441,"x_min":0,"x_max":0,"o":"m 201 -201 b 134 -136 168 -201 134 -179 b 204 -26 134 -94 156 -63 l 199 -15 b 46 165 100 -12 46 37 l 46 1127 l 162 1127 l 162 218 b 230 90 162 106 193 90 b 279 177 270 90 279 123 l 279 1127 l 395 1127 l 395 193 b 241 -14 395 57 327 -3 b 205 -83 216 -43 205 -65 b 238 -116 205 -108 218 -116 b 287 -103 256 -116 276 -110 l 295 -111 b 201 -201 275 -153 238 -201 "},"Ŵ":{"ha":645,"x_min":0,"x_max":0,"o":"m 318 1227 b 170 1167 318 1191 276 1167 l 170 1176 b 269 1281 236 1184 269 1218 l 269 1312 l 378 1312 l 378 1281 b 477 1176 378 1218 410 1184 l 477 1167 b 329 1227 370 1167 329 1191 l 318 1227 m 191 647 l 207 338 l 224 338 l 285 1127 l 361 1127 l 407 647 l 437 338 l 454 338 l 506 1127 l 645 1127 l 448 0 l 404 0 l 309 755 l 298 755 l 231 0 l 188 0 l 0 1127 l 130 1127 "},"Ẁ":{"ha":645,"x_min":0,"x_max":0,"o":"m 216 1312 l 316 1312 l 313 1296 b 448 1176 302 1242 349 1191 l 448 1167 b 216 1296 279 1168 216 1210 m 191 647 l 207 338 l 224 338 l 285 1127 l 361 1127 l 407 647 l 437 338 l 454 338 l 506 1127 l 645 1127 l 448 0 l 404 0 l 309 755 l 298 755 l 231 0 l 188 0 l 0 1127 l 130 1127 "},"Ẃ":{"ha":645,"x_min":0,"x_max":0,"o":"m 460 1296 b 228 1167 460 1210 397 1168 l 228 1176 b 363 1296 327 1191 373 1242 l 360 1312 l 460 1312 l 460 1296 m 191 647 l 207 338 l 224 338 l 285 1127 l 361 1127 l 407 647 l 437 338 l 454 338 l 506 1127 l 645 1127 l 448 0 l 404 0 l 309 755 l 298 755 l 231 0 l 188 0 l 0 1127 l 130 1127 "},"Ẅ":{"ha":645,"x_min":0,"x_max":0,"o":"m 171 1281 l 304 1281 l 304 1210 l 171 1210 m 341 1281 l 474 1281 l 474 1210 l 341 1210 m 191 647 l 207 338 l 224 338 l 285 1127 l 361 1127 l 407 647 l 437 338 l 454 338 l 506 1127 l 645 1127 l 448 0 l 404 0 l 309 755 l 298 755 l 231 0 l 188 0 l 0 1127 l 130 1127 "},"Ý":{"ha":429,"x_min":0,"x_max":0,"o":"m 332 1296 b 100 1167 332 1210 269 1168 l 100 1176 b 235 1296 199 1191 245 1242 l 231 1312 l 332 1312 l 332 1296 m 191 699 l 221 426 l 238 426 l 290 1127 l 429 1127 l 269 312 l 269 0 l 153 0 l 153 313 l 0 1127 l 130 1127 "},"Ŷ":{"ha":429,"x_min":0,"x_max":0,"o":"m 207 1227 b 59 1167 207 1191 165 1167 l 59 1176 b 157 1281 125 1184 157 1218 l 157 1312 l 267 1312 l 267 1281 b 366 1176 267 1218 299 1184 l 366 1167 b 218 1227 259 1167 218 1191 l 207 1227 m 191 699 l 221 426 l 238 426 l 290 1127 l 429 1127 l 269 312 l 269 0 l 153 0 l 153 313 l 0 1127 l 130 1127 "},"Ÿ":{"ha":429,"x_min":0,"x_max":0,"o":"m 60 1281 l 193 1281 l 193 1210 l 60 1210 m 230 1281 l 363 1281 l 363 1210 l 230 1210 m 191 699 l 221 426 l 238 426 l 290 1127 l 429 1127 l 269 312 l 269 0 l 153 0 l 153 313 l 0 1127 l 130 1127 "},"Ỳ":{"ha":429,"x_min":0,"x_max":0,"o":"m 88 1312 l 188 1312 l 185 1296 b 319 1176 174 1242 221 1191 l 319 1167 b 88 1296 151 1168 88 1210 m 191 699 l 221 426 l 238 426 l 290 1127 l 429 1127 l 269 312 l 269 0 l 153 0 l 153 313 l 0 1127 l 130 1127 "},"Ź":{"ha":349,"x_min":0,"x_max":0,"o":"m 298 1296 b 66 1167 298 1210 235 1168 l 66 1176 b 201 1296 165 1191 211 1242 l 198 1312 l 298 1312 l 298 1296 m 323 1127 l 130 113 l 139 100 l 335 100 l 335 0 l 9 0 l 9 2 l 8 0 l 201 1014 l 191 1026 l 43 1026 l 43 1127 "},"Ż":{"ha":349,"x_min":0,"x_max":0,"o":"m 96 1289 l 259 1289 l 259 1210 l 96 1210 m 323 1127 l 130 113 l 139 100 l 335 100 l 335 0 l 9 0 l 9 2 l 8 0 l 201 1014 l 191 1026 l 43 1026 l 43 1127 "},"Ž":{"ha":349,"x_min":0,"x_max":0,"o":"m 184 1258 b 332 1318 184 1293 225 1318 l 332 1309 b 233 1204 265 1301 233 1267 l 233 1173 l 123 1173 l 123 1204 b 25 1309 123 1267 91 1301 l 25 1318 b 173 1258 131 1318 173 1293 m 323 1127 l 130 113 l 139 100 l 335 100 l 335 0 l 9 0 l 9 2 l 8 0 l 201 1014 l 191 1026 l 43 1026 l 43 1127 "},"Þ":{"ha":441,"x_min":0,"x_max":0,"o":"m 162 972 l 185 972 b 395 778 318 972 395 918 l 395 378 b 165 170 395 227 290 170 l 162 170 l 162 0 l 46 0 l 46 1127 l 162 1127 m 185 275 b 279 363 261 275 279 309 l 279 739 b 174 867 279 840 252 867 l 162 867 l 162 275 l 185 275 "},"a":{"ha":458,"x_min":0,"x_max":0,"o":"m 211 941 b 346 815 301 941 346 894 l 346 182 b 378 90 346 99 361 90 b 404 150 392 90 403 99 l 409 420 l 431 420 l 435 156 b 349 -15 437 59 421 -15 b 276 248 285 -15 258 29 l 261 252 b 140 -15 238 22 199 -15 b 51 94 82 -15 51 20 l 51 201 b 238 489 51 326 116 375 l 238 775 b 174 836 238 824 225 836 b 74 748 94 836 74 802 b 227 498 74 684 100 627 l 79 498 b 39 731 48 573 39 660 b 211 941 39 829 114 941 m 185 97 b 238 333 219 97 238 191 l 238 457 b 159 289 170 390 159 353 l 159 134 b 185 97 159 106 170 97 "},"b":{"ha":452,"x_min":0,"x_max":0,"o":"m 398 247 b 255 -15 398 62 353 -15 b 90 76 193 -15 133 20 l 76 73 l 66 0 l 39 0 l 69 253 l 69 1127 l 176 1127 l 176 909 l 140 674 l 156 671 b 299 941 188 903 241 941 b 398 816 356 941 398 894 l 398 247 m 287 756 b 247 836 287 812 273 836 b 177 590 213 836 177 731 l 177 114 b 244 83 198 94 219 83 b 287 238 273 83 287 105 "},"c":{"ha":377,"x_min":0,"x_max":0,"o":"m 301 795 b 218 836 301 824 276 836 b 162 747 171 836 162 802 l 162 218 b 230 90 162 106 194 90 b 284 247 265 90 281 148 l 289 429 l 310 429 l 315 242 b 181 -15 318 96 273 -15 b 54 165 97 -15 54 32 l 54 731 b 211 941 54 884 127 941 b 330 796 292 941 330 894 b 299 515 330 756 326 653 l 182 515 b 301 795 275 696 301 755 "},"d":{"ha":437,"x_min":0,"x_max":0,"o":"m 54 679 b 198 941 54 864 99 941 b 304 890 236 941 270 921 l 313 900 l 275 940 l 275 1127 l 383 1127 l 383 0 l 276 0 l 276 17 l 312 252 l 296 255 b 153 -15 264 23 211 -15 b 54 110 96 -15 54 32 l 54 679 m 165 170 b 205 90 165 114 179 90 b 275 336 239 90 275 194 l 275 812 b 208 843 255 832 233 843 b 165 688 179 843 165 821 "},"e":{"ha":401,"x_min":0,"x_max":0,"o":"m 347 512 l 162 512 l 162 218 b 245 90 162 106 202 90 b 315 247 292 90 312 148 l 319 427 l 341 427 l 346 242 b 196 -15 349 96 299 -15 b 54 165 102 -15 54 32 l 54 731 b 218 941 54 884 125 941 b 347 759 302 941 347 894 m 255 708 b 207 836 255 821 238 836 b 162 747 170 836 162 802 l 162 534 l 255 534 l 255 708 "},"f":{"ha":307,"x_min":0,"x_max":0,"o":"m 187 926 l 323 926 l 323 847 l 187 847 l 187 0 l 79 0 l 79 785 b 85 847 79 806 80 827 l 12 847 l 12 926 l 108 926 b 358 1127 157 1040 259 1127 l 378 1127 l 378 992 b 261 1014 350 1005 310 1014 b 187 971 216 1014 187 1005 "},"g":{"ha":434,"x_min":0,"x_max":0,"o":"m 361 381 b 193 181 361 236 284 181 b 125 193 167 181 144 184 b 77 127 99 168 77 142 b 116 105 77 113 86 105 l 279 105 b 420 9 375 105 420 73 b 144 -201 420 -73 272 -201 b 14 -106 51 -201 14 -153 b 90 3 14 -51 48 -15 l 90 12 b 29 82 54 22 29 42 b 100 205 29 134 74 173 b 43 361 63 233 43 282 l 43 718 b 211 926 43 869 120 926 l 434 926 l 434 748 b 218 900 344 877 290 898 l 218 881 b 361 715 302 870 361 813 m 193 821 b 151 733 159 821 151 787 l 151 401 b 211 273 151 290 179 273 b 253 361 245 273 253 307 l 253 693 b 193 821 253 804 224 821 m 100 -45 b 244 -102 100 -76 123 -102 b 344 -59 315 -102 344 -90 b 279 0 344 -22 332 0 l 133 0 b 100 -45 108 -12 100 -28 "},"h":{"ha":437,"x_min":0,"x_max":0,"o":"m 162 909 l 125 674 l 140 671 b 284 941 173 903 225 941 b 383 816 341 941 383 894 l 383 0 l 275 0 l 275 756 b 238 836 275 812 267 836 b 162 585 194 836 162 730 l 162 0 l 54 0 l 54 1127 l 162 1127 "},"i":{"ha":216,"x_min":0,"x_max":0,"o":"m 26 1127 l 190 1127 l 190 1048 l 26 1048 m 162 0 l 54 0 l 54 926 l 162 926 "},"j":{"ha":216,"x_min":0,"x_max":0,"o":"m 26 1127 l 190 1127 l 190 1048 l 26 1048 m 54 926 l 162 926 l 162 211 b -117 -201 162 -34 20 -201 l -137 -201 l -137 -66 b -20 -88 -110 -79 -69 -88 b 54 -45 25 -88 54 -79 "},"k":{"ha":423,"x_min":0,"x_max":0,"o":"m 164 1002 l 127 546 l 142 543 l 255 926 l 394 926 l 394 830 l 360 821 b 210 636 293 802 259 758 b 176 529 193 594 182 562 l 184 522 l 336 542 l 407 0 l 290 0 l 259 356 b 168 488 250 466 224 494 b 164 407 165 463 164 437 l 164 0 l 56 0 l 56 1127 l 164 1127 "},"l":{"ha":216,"x_min":0,"x_max":0,"o":"m 162 0 l 54 0 l 54 1127 l 162 1127 "},"m":{"ha":627,"x_min":0,"x_max":0,"o":"m 346 668 b 481 941 378 903 426 941 b 573 816 534 941 573 894 l 573 0 l 465 0 l 465 756 b 435 836 465 812 458 836 b 367 586 400 836 367 727 l 367 0 l 259 0 l 259 756 b 230 836 259 812 253 836 b 162 586 194 836 162 727 l 162 0 l 54 0 l 54 926 l 162 926 l 162 909 l 125 674 l 140 671 b 276 941 173 903 221 941 b 352 823 326 941 363 900 l 330 671 "},"n":{"ha":437,"x_min":0,"x_max":0,"o":"m 162 909 l 125 674 l 140 671 b 284 941 173 903 225 941 b 383 816 341 941 383 894 l 383 0 l 275 0 l 275 756 b 238 836 275 812 267 836 b 162 586 194 836 162 730 l 162 0 l 54 0 l 54 926 l 162 926 "},"o":{"ha":426,"x_min":0,"x_max":0,"o":"m 204 -15 b 54 165 106 -15 54 32 l 54 733 b 222 941 54 884 131 941 b 372 761 321 941 372 894 l 372 193 b 204 -15 372 42 295 -15 m 204 836 b 162 748 170 836 162 802 l 162 218 b 222 90 162 106 190 90 b 264 177 256 90 264 123 l 264 708 b 204 836 264 819 235 836 "},"p":{"ha":437,"x_min":0,"x_max":0,"o":"m 383 247 b 239 -15 383 62 338 -15 b 133 35 201 -15 167 5 l 123 26 l 162 -14 l 162 -201 l 54 -201 l 54 926 l 160 926 l 160 909 l 125 674 l 140 671 b 284 941 173 903 225 941 b 383 816 341 941 383 894 l 383 247 m 272 756 b 231 836 272 812 258 836 b 162 590 198 836 162 731 l 162 114 b 228 83 182 94 204 83 b 272 238 258 83 272 105 "},"q":{"ha":452,"x_min":0,"x_max":0,"o":"m 54 679 b 198 941 54 864 99 941 b 363 850 259 941 319 906 l 377 853 l 386 926 l 414 926 l 383 673 l 383 -201 l 276 -201 l 276 17 l 312 252 l 296 255 b 153 -15 264 23 211 -15 b 54 110 96 -15 54 32 l 54 679 m 165 170 b 205 90 165 114 179 90 b 275 336 239 90 275 194 l 275 812 b 208 843 255 832 233 843 b 165 688 179 843 165 821 "},"r":{"ha":350,"x_min":0,"x_max":0,"o":"m 265 827 b 162 590 216 827 162 745 l 162 0 l 54 0 l 54 926 l 160 926 l 160 909 l 127 674 l 142 671 b 265 941 174 903 213 941 b 335 789 312 941 335 890 b 304 508 335 748 330 645 l 187 508 b 307 787 275 693 307 759 b 265 827 307 815 293 827 "},"s":{"ha":367,"x_min":0,"x_max":0,"o":"m 341 174 b 170 -15 341 42 262 -15 b 35 128 79 -15 35 32 b 52 363 35 207 42 295 l 164 363 b 65 130 85 211 65 162 b 170 90 65 102 94 90 b 233 160 221 90 233 120 b 28 750 233 313 28 583 b 199 941 28 887 106 941 b 318 799 279 941 318 895 b 301 585 318 738 315 667 l 199 585 b 289 798 269 722 289 767 b 199 836 289 826 264 836 b 136 769 148 836 136 809 b 341 174 136 637 341 309 "},"t":{"ha":355,"x_min":0,"x_max":0,"o":"m 187 218 b 241 90 187 106 215 90 b 293 231 278 90 290 128 l 298 429 l 319 429 l 324 227 b 198 -15 327 90 285 -15 b 79 165 119 -15 79 32 l 79 847 l 8 847 l 8 926 l 79 926 l 79 1079 b 185 1142 114 1086 160 1105 l 202 1137 l 170 938 l 177 926 l 321 926 l 321 847 l 187 847 "},"u":{"ha":437,"x_min":0,"x_max":0,"o":"m 275 17 l 312 252 l 296 255 b 153 -15 264 23 211 -15 b 54 110 96 -15 54 32 l 54 926 l 162 926 l 162 170 b 199 90 162 114 170 90 b 275 340 242 90 275 196 l 275 926 l 383 926 l 383 0 l 275 0 "},"v":{"ha":372,"x_min":0,"x_max":0,"o":"m 160 600 l 194 292 l 211 292 l 253 926 l 380 926 l 202 0 l 170 0 l -8 926 l 110 926 "},"w":{"ha":573,"x_min":0,"x_max":0,"o":"m 156 600 l 171 292 l 188 292 l 259 926 l 326 926 l 375 600 l 410 292 l 427 292 l 454 926 l 580 926 l 421 0 l 378 0 l 275 594 l 258 594 l 190 0 l 147 0 l -8 926 l 110 926 "},"x":{"ha":401,"x_min":0,"x_max":0,"o":"m 0 0 l 154 485 l 6 926 l 128 926 l 179 736 l 216 573 l 233 573 l 269 926 l 398 926 l 253 505 l 401 0 l 279 0 l 228 215 l 191 417 l 177 417 l 130 0 "},"y":{"ha":372,"x_min":0,"x_max":0,"o":"m 160 585 l 194 276 l 211 276 l 253 926 l 380 926 l 164 -201 l 31 -201 l 190 127 l 145 127 l -8 926 l 110 926 "},"z":{"ha":358,"x_min":0,"x_max":0,"o":"m 207 860 l 196 872 l 43 802 l 43 926 l 326 926 l 130 63 l 137 52 l 335 123 l 335 0 l 8 0 "},"à":{"ha":458,"x_min":0,"x_max":0,"o":"m 86 1127 l 187 1127 l 184 1111 b 318 991 173 1057 219 1006 l 318 981 b 86 1111 150 983 86 1025 m 211 941 b 346 815 301 941 346 894 l 346 182 b 378 90 346 99 361 90 b 404 150 392 90 403 99 l 409 420 l 431 420 l 435 156 b 349 -15 437 59 421 -15 b 276 248 285 -15 258 29 l 261 252 b 140 -15 238 22 199 -15 b 51 94 82 -15 51 20 l 51 201 b 238 489 51 326 116 375 l 238 775 b 174 836 238 824 225 836 b 74 748 94 836 74 802 b 227 498 74 684 100 627 l 79 498 b 39 731 48 573 39 660 b 211 941 39 829 114 941 m 185 97 b 238 333 219 97 238 191 l 238 457 b 159 289 170 390 159 353 l 159 134 b 185 97 159 106 170 97 "},"á":{"ha":458,"x_min":0,"x_max":0,"o":"m 330 1111 b 99 981 330 1025 267 983 l 99 991 b 233 1111 198 1006 244 1057 l 230 1127 l 330 1127 l 330 1111 m 211 941 b 346 815 301 941 346 894 l 346 182 b 378 90 346 99 361 90 b 404 150 392 90 403 99 l 409 420 l 431 420 l 435 156 b 349 -15 437 59 421 -15 b 276 248 285 -15 258 29 l 261 252 b 140 -15 238 22 199 -15 b 51 94 82 -15 51 20 l 51 201 b 238 489 51 326 116 375 l 238 775 b 174 836 238 824 225 836 b 74 748 94 836 74 802 b 227 498 74 684 100 627 l 79 498 b 39 731 48 573 39 660 b 211 941 39 829 114 941 m 185 97 b 238 333 219 97 238 191 l 238 457 b 159 289 170 390 159 353 l 159 134 b 185 97 159 106 170 97 "},"â":{"ha":458,"x_min":0,"x_max":0,"o":"m 205 1042 b 57 981 205 1006 164 981 l 57 991 b 156 1096 123 998 156 1032 l 156 1127 l 265 1127 l 265 1096 b 364 991 265 1032 298 998 l 364 981 b 216 1042 258 981 216 1006 l 205 1042 m 211 941 b 346 815 301 941 346 894 l 346 182 b 378 90 346 99 361 90 b 404 150 392 90 403 99 l 409 420 l 431 420 l 435 156 b 349 -15 437 59 421 -15 b 276 248 285 -15 258 29 l 261 252 b 140 -15 238 22 199 -15 b 51 94 82 -15 51 20 l 51 201 b 238 489 51 326 116 375 l 238 775 b 174 836 238 824 225 836 b 74 748 94 836 74 802 b 227 498 74 684 100 627 l 79 498 b 39 731 48 573 39 660 b 211 941 39 829 114 941 m 185 97 b 238 333 219 97 238 191 l 238 457 b 159 289 170 390 159 353 l 159 134 b 185 97 159 106 170 97 "},"ã":{"ha":458,"x_min":0,"x_max":0,"o":"m 290 983 b 125 1049 247 983 170 1049 b 65 981 97 1049 79 1026 l 54 981 b 131 1130 54 1090 79 1130 b 296 1063 174 1130 252 1063 b 356 1131 324 1063 343 1086 l 367 1131 b 290 983 367 1023 343 983 m 211 941 b 346 815 301 941 346 894 l 346 182 b 378 90 346 99 361 90 b 404 150 392 90 403 99 l 409 420 l 431 420 l 435 156 b 349 -15 437 59 421 -15 b 276 248 285 -15 258 29 l 261 252 b 140 -15 238 22 199 -15 b 51 94 82 -15 51 20 l 51 201 b 238 489 51 326 116 375 l 238 775 b 174 836 238 824 225 836 b 74 748 94 836 74 802 b 227 498 74 684 100 627 l 79 498 b 39 731 48 573 39 660 b 211 941 39 829 114 941 m 185 97 b 238 333 219 97 238 191 l 238 457 b 159 289 170 390 159 353 l 159 134 b 185 97 159 106 170 97 "},"ä":{"ha":458,"x_min":0,"x_max":0,"o":"m 59 1096 l 191 1096 l 191 1025 l 59 1025 m 228 1096 l 361 1096 l 361 1025 l 228 1025 m 211 941 b 346 815 301 941 346 894 l 346 182 b 378 90 346 99 361 90 b 404 150 392 90 403 99 l 409 420 l 431 420 l 435 156 b 349 -15 437 59 421 -15 b 276 248 285 -15 258 29 l 261 252 b 140 -15 238 22 199 -15 b 51 94 82 -15 51 20 l 51 201 b 238 489 51 326 116 375 l 238 775 b 174 836 238 824 225 836 b 74 748 94 836 74 802 b 227 498 74 684 100 627 l 79 498 b 39 731 48 573 39 660 b 211 941 39 829 114 941 m 185 97 b 238 333 219 97 238 191 l 238 457 b 159 289 170 390 159 353 l 159 134 b 185 97 159 106 170 97 "},"å":{"ha":458,"x_min":0,"x_max":0,"o":"m 210 981 b 111 1065 139 981 111 1009 b 210 1148 111 1120 139 1148 b 309 1065 281 1148 309 1120 b 210 981 309 1009 281 981 m 210 1023 b 250 1065 236 1023 250 1040 b 210 1106 250 1090 236 1106 b 170 1065 184 1106 170 1090 b 210 1023 170 1040 184 1023 m 211 941 b 346 815 301 941 346 894 l 346 182 b 378 90 346 99 361 90 b 404 150 392 90 403 99 l 409 420 l 431 420 l 435 156 b 349 -15 437 59 421 -15 b 276 248 285 -15 258 29 l 261 252 b 140 -15 238 22 199 -15 b 51 94 82 -15 51 20 l 51 201 b 238 489 51 326 116 375 l 238 775 b 174 836 238 824 225 836 b 74 748 94 836 74 802 b 227 498 74 684 100 627 l 79 498 b 39 731 48 573 39 660 b 211 941 39 829 114 941 m 185 97 b 238 333 219 97 238 191 l 238 457 b 159 289 170 390 159 353 l 159 134 b 185 97 159 106 170 97 "},"ā":{"ha":458,"x_min":0,"x_max":0,"o":"m 59 1096 l 361 1096 l 361 1025 l 59 1025 m 211 941 b 346 815 301 941 346 894 l 346 182 b 378 90 346 99 361 90 b 404 150 392 90 403 99 l 409 420 l 431 420 l 435 156 b 349 -15 437 59 421 -15 b 276 248 285 -15 258 29 l 261 252 b 140 -15 238 22 199 -15 b 51 94 82 -15 51 20 l 51 201 b 238 489 51 326 116 375 l 238 775 b 174 836 238 824 225 836 b 74 748 94 836 74 802 b 227 498 74 684 100 627 l 79 498 b 39 731 48 573 39 660 b 211 941 39 829 114 941 m 185 97 b 238 333 219 97 238 191 l 238 457 b 159 289 170 390 159 353 l 159 134 b 185 97 159 106 170 97 "},"ă":{"ha":458,"x_min":0,"x_max":0,"o":"m 210 1056 b 324 1127 279 1056 315 1071 l 333 1127 b 210 981 332 1014 292 981 b 86 1127 128 981 88 1014 l 96 1127 b 210 1056 105 1071 140 1056 m 211 941 b 346 815 301 941 346 894 l 346 182 b 378 90 346 99 361 90 b 404 150 392 90 403 99 l 409 420 l 431 420 l 435 156 b 349 -15 437 59 421 -15 b 276 248 285 -15 258 29 l 261 252 b 140 -15 238 22 199 -15 b 51 94 82 -15 51 20 l 51 201 b 238 489 51 326 116 375 l 238 775 b 174 836 238 824 225 836 b 74 748 94 836 74 802 b 227 498 74 684 100 627 l 79 498 b 39 731 48 573 39 660 b 211 941 39 829 114 941 m 185 97 b 238 333 219 97 238 191 l 238 457 b 159 289 170 390 159 353 l 159 134 b 185 97 159 106 170 97 "},"ą":{"ha":458,"x_min":0,"x_max":0,"o":"m 343 -201 b 276 -136 310 -201 276 -179 b 347 -25 276 -94 299 -63 l 343 -15 b 276 248 284 -12 258 37 l 261 252 b 140 -15 238 22 199 -15 b 51 94 82 -15 51 20 l 51 201 b 238 489 51 326 116 375 l 238 775 b 174 836 238 824 225 836 b 74 748 94 836 74 802 b 227 498 74 684 100 627 l 79 498 b 39 731 48 573 39 660 b 211 941 39 829 114 941 b 346 815 301 941 346 894 l 346 182 b 378 90 346 99 361 90 b 404 150 392 90 403 99 l 409 420 l 431 420 l 435 156 b 394 -3 437 83 427 23 b 347 -83 361 -37 347 -62 b 380 -116 347 -108 360 -116 b 429 -103 398 -116 418 -110 l 437 -111 b 343 -201 417 -153 380 -201 m 185 97 b 238 333 219 97 238 191 l 238 457 b 159 289 170 390 159 353 l 159 134 b 185 97 159 106 170 97 "},"æ":{"ha":585,"x_min":0,"x_max":0,"o":"m 421 941 b 531 761 486 941 531 894 l 531 512 l 346 512 l 346 218 b 429 90 346 106 386 90 b 498 247 475 90 495 148 l 503 427 l 525 427 l 529 242 b 380 -15 532 96 483 -15 b 276 248 296 -15 262 29 l 261 248 b 140 -15 238 22 199 -15 b 51 94 82 -15 51 20 l 51 201 b 238 489 51 326 116 375 l 238 775 b 174 836 238 824 225 836 b 85 748 103 836 85 802 b 227 500 85 684 105 623 l 79 500 b 39 731 48 574 39 660 b 211 941 39 829 114 941 b 309 815 276 941 309 894 l 309 733 l 323 733 b 421 941 323 884 356 941 m 346 534 l 438 534 l 438 710 b 390 836 438 821 421 836 b 346 748 353 836 346 802 m 185 97 b 238 333 219 97 238 191 l 238 457 b 159 289 170 392 159 353 l 159 134 b 185 97 159 106 170 97 "},"ç":{"ha":377,"x_min":0,"x_max":0,"o":"m 194 -201 b 108 -142 147 -201 122 -168 l 114 -134 b 160 -150 127 -144 136 -150 b 198 -114 185 -150 198 -131 b 173 -82 198 -94 188 -82 b 144 -96 160 -82 154 -86 l 134 -88 l 170 -19 l 165 -15 b 54 165 93 -9 54 40 l 54 731 b 211 941 54 884 127 941 b 330 796 292 941 330 894 b 299 515 330 756 326 653 l 182 515 b 301 795 275 696 301 755 b 218 836 301 824 276 836 b 162 747 171 836 162 802 l 162 218 b 230 90 162 106 194 90 b 284 247 265 90 281 148 l 289 429 l 310 429 l 315 242 b 194 -14 318 103 278 -3 l 174 -54 l 181 -59 b 210 -54 190 -56 201 -54 b 275 -116 245 -54 275 -73 b 194 -201 275 -165 238 -201 "},"ć":{"ha":377,"x_min":0,"x_max":0,"o":"m 319 1111 b 88 981 319 1025 256 983 l 88 991 b 222 1111 187 1006 233 1057 l 219 1127 l 319 1127 l 319 1111 m 301 795 b 218 836 301 824 276 836 b 162 747 171 836 162 802 l 162 218 b 230 90 162 106 194 90 b 284 247 265 90 281 148 l 289 429 l 310 429 l 315 242 b 181 -15 318 96 273 -15 b 54 165 97 -15 54 32 l 54 731 b 211 941 54 884 127 941 b 330 796 292 941 330 894 b 299 515 330 756 326 653 l 182 515 b 301 795 275 696 301 755 "},"ĉ":{"ha":377,"x_min":0,"x_max":0,"o":"m 194 1042 b 46 981 194 1006 153 981 l 46 991 b 145 1096 113 998 145 1032 l 145 1127 l 255 1127 l 255 1096 b 353 991 255 1032 287 998 l 353 981 b 205 1042 247 981 205 1006 l 194 1042 m 301 795 b 218 836 301 824 276 836 b 162 747 171 836 162 802 l 162 218 b 230 90 162 106 194 90 b 284 247 265 90 281 148 l 289 429 l 310 429 l 315 242 b 181 -15 318 96 273 -15 b 54 165 97 -15 54 32 l 54 731 b 211 941 54 884 127 941 b 330 796 292 941 330 894 b 299 515 330 756 326 653 l 182 515 b 301 795 275 696 301 755 "},"ċ":{"ha":377,"x_min":0,"x_max":0,"o":"m 117 1127 l 281 1127 l 281 1048 l 117 1048 m 301 795 b 218 836 301 824 276 836 b 162 747 171 836 162 802 l 162 218 b 230 90 162 106 194 90 b 284 247 265 90 281 148 l 289 429 l 310 429 l 315 242 b 181 -15 318 96 273 -15 b 54 165 97 -15 54 32 l 54 731 b 211 941 54 884 127 941 b 330 796 292 941 330 894 b 299 515 330 756 326 653 l 182 515 b 301 795 275 696 301 755 "},"č":{"ha":377,"x_min":0,"x_max":0,"o":"m 205 1066 b 353 1127 205 1102 247 1127 l 353 1117 b 255 1012 287 1110 255 1076 l 255 981 l 145 981 l 145 1012 b 46 1117 145 1076 113 1110 l 46 1127 b 194 1066 153 1127 194 1102 m 301 795 b 218 836 301 824 276 836 b 162 747 171 836 162 802 l 162 218 b 230 90 162 106 194 90 b 284 247 265 90 281 148 l 289 429 l 310 429 l 315 242 b 181 -15 318 96 273 -15 b 54 165 97 -15 54 32 l 54 731 b 211 941 54 884 127 941 b 330 796 292 941 330 894 b 299 515 330 756 326 653 l 182 515 b 301 795 275 696 301 755 "},"ď":{"ha":551,"x_min":0,"x_max":0,"o":"m 54 679 b 198 941 54 864 99 941 b 304 890 236 941 270 921 l 313 900 l 275 940 l 275 1127 l 383 1127 l 383 0 l 276 0 l 276 17 l 312 252 l 296 255 b 153 -15 264 23 211 -15 b 54 110 96 -15 54 32 l 54 679 m 535 1111 b 438 835 535 966 506 892 l 431 843 b 441 1111 463 894 474 949 l 438 1127 l 535 1127 l 535 1111 m 165 170 b 205 90 165 114 179 90 b 275 336 239 90 275 194 l 275 812 b 208 843 255 832 233 843 b 165 688 179 843 165 821 "},"è":{"ha":401,"x_min":0,"x_max":0,"o":"m 86 1127 l 187 1127 l 184 1111 b 318 991 173 1057 219 1006 l 318 981 b 86 1111 150 983 86 1025 m 347 512 l 162 512 l 162 218 b 245 90 162 106 202 90 b 315 247 292 90 312 148 l 319 427 l 341 427 l 346 242 b 196 -15 349 96 299 -15 b 54 165 102 -15 54 32 l 54 731 b 218 941 54 884 125 941 b 347 759 302 941 347 894 m 255 708 b 207 836 255 821 238 836 b 162 747 170 836 162 802 l 162 534 l 255 534 l 255 708 "},"é":{"ha":401,"x_min":0,"x_max":0,"o":"m 330 1111 b 99 981 330 1025 267 983 l 99 991 b 233 1111 198 1006 244 1057 l 230 1127 l 330 1127 l 330 1111 m 347 512 l 162 512 l 162 218 b 245 90 162 106 202 90 b 315 247 292 90 312 148 l 319 427 l 341 427 l 346 242 b 196 -15 349 96 299 -15 b 54 165 102 -15 54 32 l 54 731 b 218 941 54 884 125 941 b 347 759 302 941 347 894 m 255 708 b 207 836 255 821 238 836 b 162 747 170 836 162 802 l 162 534 l 255 534 l 255 708 "},"ê":{"ha":401,"x_min":0,"x_max":0,"o":"m 205 1042 b 57 981 205 1006 164 981 l 57 991 b 156 1096 123 998 156 1032 l 156 1127 l 265 1127 l 265 1096 b 364 991 265 1032 298 998 l 364 981 b 216 1042 258 981 216 1006 l 205 1042 m 347 512 l 162 512 l 162 218 b 245 90 162 106 202 90 b 315 247 292 90 312 148 l 319 427 l 341 427 l 346 242 b 196 -15 349 96 299 -15 b 54 165 102 -15 54 32 l 54 731 b 218 941 54 884 125 941 b 347 759 302 941 347 894 m 255 708 b 207 836 255 821 238 836 b 162 747 170 836 162 802 l 162 534 l 255 534 l 255 708 "},"ë":{"ha":401,"x_min":0,"x_max":0,"o":"m 59 1096 l 191 1096 l 191 1025 l 59 1025 m 228 1096 l 361 1096 l 361 1025 l 228 1025 m 347 512 l 162 512 l 162 218 b 245 90 162 106 202 90 b 315 247 292 90 312 148 l 319 427 l 341 427 l 346 242 b 196 -15 349 96 299 -15 b 54 165 102 -15 54 32 l 54 731 b 218 941 54 884 125 941 b 347 759 302 941 347 894 m 255 708 b 207 836 255 821 238 836 b 162 747 170 836 162 802 l 162 534 l 255 534 l 255 708 "},"ē":{"ha":401,"x_min":0,"x_max":0,"o":"m 59 1096 l 361 1096 l 361 1025 l 59 1025 m 347 512 l 162 512 l 162 218 b 245 90 162 106 202 90 b 315 247 292 90 312 148 l 319 427 l 341 427 l 346 242 b 196 -15 349 96 299 -15 b 54 165 102 -15 54 32 l 54 731 b 218 941 54 884 125 941 b 347 759 302 941 347 894 m 255 708 b 207 836 255 821 238 836 b 162 747 170 836 162 802 l 162 534 l 255 534 l 255 708 "},"ĕ":{"ha":401,"x_min":0,"x_max":0,"o":"m 210 1056 b 324 1127 279 1056 315 1071 l 333 1127 b 210 981 332 1014 292 981 b 86 1127 128 981 88 1014 l 96 1127 b 210 1056 105 1071 140 1056 m 347 512 l 162 512 l 162 218 b 245 90 162 106 202 90 b 315 247 292 90 312 148 l 319 427 l 341 427 l 346 242 b 196 -15 349 96 299 -15 b 54 165 102 -15 54 32 l 54 731 b 218 941 54 884 125 941 b 347 759 302 941 347 894 m 255 708 b 207 836 255 821 238 836 b 162 747 170 836 162 802 l 162 534 l 255 534 l 255 708 "},"ė":{"ha":401,"x_min":0,"x_max":0,"o":"m 128 1127 l 292 1127 l 292 1048 l 128 1048 m 347 512 l 162 512 l 162 218 b 245 90 162 106 202 90 b 315 247 292 90 312 148 l 319 427 l 341 427 l 346 242 b 196 -15 349 96 299 -15 b 54 165 102 -15 54 32 l 54 731 b 218 941 54 884 125 941 b 347 759 302 941 347 894 m 255 708 b 207 836 255 821 238 836 b 162 747 170 836 162 802 l 162 534 l 255 534 l 255 708 "},"ę":{"ha":401,"x_min":0,"x_max":0,"o":"m 204 -201 b 137 -136 171 -201 137 -179 b 205 -28 137 -96 159 -65 l 199 -15 l 196 -15 b 54 165 102 -15 54 32 l 54 731 b 218 941 54 884 125 941 b 347 759 302 941 347 894 l 347 512 l 162 512 l 162 218 b 245 90 162 106 202 90 b 315 247 292 90 312 148 l 319 427 l 341 427 l 346 242 b 256 0 349 128 318 34 b 208 -83 224 -37 208 -62 b 241 -116 208 -108 221 -116 b 290 -103 259 -116 279 -110 l 298 -111 b 204 -201 278 -153 241 -201 m 255 708 b 207 836 255 821 238 836 b 162 747 170 836 162 802 l 162 534 l 255 534 l 255 708 "},"ě":{"ha":401,"x_min":0,"x_max":0,"o":"m 216 1066 b 364 1127 216 1102 258 1127 l 364 1117 b 265 1012 298 1110 265 1076 l 265 981 l 156 981 l 156 1012 b 57 1117 156 1076 123 1110 l 57 1127 b 205 1066 164 1127 205 1102 m 347 512 l 162 512 l 162 218 b 245 90 162 106 202 90 b 315 247 292 90 312 148 l 319 427 l 341 427 l 346 242 b 196 -15 349 96 299 -15 b 54 165 102 -15 54 32 l 54 731 b 218 941 54 884 125 941 b 347 759 302 941 347 894 m 255 708 b 207 836 255 821 238 836 b 162 747 170 836 162 802 l 162 534 l 255 534 l 255 708 "},"ĝ":{"ha":434,"x_min":0,"x_max":0,"o":"m 213 1042 b 65 981 213 1006 171 981 l 65 991 b 164 1096 130 998 164 1032 l 164 1127 l 273 1127 l 273 1096 b 372 991 273 1032 306 998 l 372 981 b 224 1042 264 981 224 1006 l 213 1042 m 361 381 b 193 181 361 236 284 181 b 125 193 167 181 144 184 b 77 127 99 168 77 142 b 116 105 77 113 86 105 l 279 105 b 420 9 375 105 420 73 b 144 -201 420 -73 272 -201 b 14 -106 51 -201 14 -153 b 90 3 14 -51 48 -15 l 90 12 b 29 82 54 22 29 42 b 100 205 29 134 74 173 b 43 361 63 233 43 282 l 43 718 b 211 926 43 869 120 926 l 434 926 l 434 748 b 218 900 344 877 290 898 l 218 881 b 361 715 302 870 361 813 m 193 821 b 151 733 159 821 151 787 l 151 401 b 211 273 151 290 179 273 b 253 361 245 273 253 307 l 253 693 b 193 821 253 804 224 821 m 100 -45 b 244 -102 100 -76 123 -102 b 344 -59 315 -102 344 -90 b 279 0 344 -22 332 0 l 133 0 b 100 -45 108 -12 100 -28 "},"ġ":{"ha":434,"x_min":0,"x_max":0,"o":"m 136 1127 l 299 1127 l 299 1048 l 136 1048 m 361 381 b 193 181 361 236 284 181 b 125 193 167 181 144 184 b 77 127 99 168 77 142 b 116 105 77 113 86 105 l 279 105 b 420 9 375 105 420 73 b 144 -201 420 -73 272 -201 b 14 -106 51 -201 14 -153 b 90 3 14 -51 48 -15 l 90 12 b 29 82 54 22 29 42 b 100 205 29 134 74 173 b 43 361 63 233 43 282 l 43 718 b 211 926 43 869 120 926 l 434 926 l 434 748 b 218 900 344 877 290 898 l 218 881 b 361 715 302 870 361 813 m 193 821 b 151 733 159 821 151 787 l 151 401 b 211 273 151 290 179 273 b 253 361 245 273 253 307 l 253 693 b 193 821 253 804 224 821 m 100 -45 b 244 -102 100 -76 123 -102 b 344 -59 315 -102 344 -90 b 279 0 344 -22 332 0 l 133 0 b 100 -45 108 -12 100 -28 "},"ĥ":{"ha":437,"x_min":0,"x_max":0,"o":"m 96 1231 b -52 1171 96 1196 54 1171 l -52 1181 b 46 1285 14 1188 46 1222 l 46 1316 l 156 1316 l 156 1285 b 255 1181 156 1222 188 1188 l 255 1171 b 106 1231 148 1171 106 1196 l 96 1231 m 162 909 l 125 674 l 140 671 b 284 941 173 903 225 941 b 383 816 341 941 383 894 l 383 0 l 275 0 l 275 756 b 238 836 275 812 267 836 b 162 585 194 836 162 730 l 162 0 l 54 0 l 54 1127 l 162 1127 "},"ı":{"ha":216,"x_min":0,"x_max":0,"o":"m 162 0 l 54 0 l 54 926 l 162 926 "},"ì":{"ha":216,"x_min":0,"x_max":0,"o":"m -8 1122 l 93 1122 l 90 1106 b 224 986 79 1052 125 1002 l 224 977 b -8 1106 56 978 -8 1020 m 162 0 l 54 0 l 54 926 l 162 926 "},"í":{"ha":216,"x_min":0,"x_max":0,"o":"m 236 1106 b 5 977 236 1020 173 978 l 5 986 b 139 1106 103 1002 150 1052 l 136 1122 l 236 1122 l 236 1106 m 162 0 l 54 0 l 54 926 l 162 926 "},"î":{"ha":216,"x_min":0,"x_max":0,"o":"m 111 1037 b -37 977 111 1002 69 977 l -37 986 b 62 1091 29 994 62 1028 l 62 1122 l 171 1122 l 171 1091 b 270 986 171 1028 204 994 l 270 977 b 122 1037 164 977 122 1002 l 111 1037 m 162 0 l 54 0 l 54 926 l 162 926 "},"ï":{"ha":216,"x_min":0,"x_max":0,"o":"m -35 1091 l 97 1091 l 97 1020 l -35 1020 m 134 1091 l 267 1091 l 267 1020 l 134 1020 m 162 0 l 54 0 l 54 926 l 162 926 "},"ĩ":{"ha":216,"x_min":0,"x_max":0,"o":"m 196 978 b 31 1045 153 978 76 1045 b -29 977 3 1045 -15 1022 l -40 977 b 37 1125 -40 1085 -15 1125 b 202 1059 80 1125 157 1059 b 262 1127 230 1059 248 1082 l 273 1127 b 196 978 273 1019 248 978 m 162 0 l 54 0 l 54 926 l 162 926 "},"ĭ":{"ha":216,"x_min":0,"x_max":0,"o":"m 116 1051 b 230 1122 185 1051 221 1066 l 239 1122 b 116 977 238 1009 198 977 b -8 1122 34 977 -6 1009 l 2 1122 b 116 1051 11 1066 46 1051 m 162 0 l 54 0 l 54 926 l 162 926 "},"į":{"ha":216,"x_min":0,"x_max":0,"o":"m 26 1127 l 190 1127 l 190 1048 l 26 1048 m 122 -201 b 34 -110 73 -201 34 -168 b 86 0 34 -71 52 -42 l 54 0 l 54 926 l 162 926 l 162 0 l 108 0 b 71 -80 83 -35 71 -60 b 100 -111 71 -103 82 -111 b 184 -76 125 -111 160 -93 l 188 -191 b 122 -201 170 -198 147 -201 "},"ĳ":{"ha":432,"x_min":0,"x_max":0,"o":"m 26 1127 l 190 1127 l 190 1048 l 26 1048 m 242 1127 l 406 1127 l 406 1048 l 242 1048 m 162 0 l 54 0 l 54 926 l 162 926 m 270 926 l 378 926 l 378 211 b 99 -201 378 -34 236 -201 l 79 -201 l 79 -66 b 196 -88 106 -79 147 -88 b 270 -45 241 -88 270 -79 "},"ĵ":{"ha":216,"x_min":0,"x_max":0,"o":"m 103 1042 b -45 981 103 1006 62 981 l -45 991 b 54 1096 22 998 54 1032 l 54 1127 l 164 1127 l 164 1096 b 262 991 164 1032 196 998 l 262 981 b 114 1042 156 981 114 1006 l 103 1042 m 54 926 l 162 926 l 162 211 b -117 -201 162 -34 20 -201 l -137 -201 l -137 -66 b -20 -88 -110 -79 -69 -88 b 54 -45 25 -88 54 -79 "},"ȷ":{"ha":216,"x_min":0,"x_max":0,"o":"m 54 926 l 162 926 l 162 211 b -117 -201 162 -34 20 -201 l -137 -201 l -137 -66 b -20 -88 -110 -79 -69 -88 b 54 -45 25 -88 54 -79 "},"ĺ":{"ha":216,"x_min":0,"x_max":0,"o":"m 259 1296 b 28 1167 259 1210 196 1168 l 28 1176 b 162 1296 127 1191 173 1242 l 159 1312 l 259 1312 l 259 1296 m 162 0 l 54 0 l 54 1127 l 162 1127 "},"ľ":{"ha":330,"x_min":0,"x_max":0,"o":"m 162 0 l 54 0 l 54 1127 l 162 1127 m 315 1111 b 218 835 315 966 285 892 l 210 843 b 221 1111 242 894 253 949 l 218 1127 l 315 1127 l 315 1111 "},"ŀ":{"ha":364,"x_min":0,"x_max":0,"o":"m 162 0 l 54 0 l 54 1127 l 162 1127 m 199 563 l 347 563 l 347 454 l 199 454 "},"ł":{"ha":216,"x_min":0,"x_max":0,"o":"m 0 512 l 54 546 l 54 1127 l 162 1127 l 162 613 l 216 647 l 216 606 l 162 573 l 162 0 l 54 0 l 54 506 l 0 472 "},"ñ":{"ha":437,"x_min":0,"x_max":0,"o":"m 306 983 b 140 1049 262 983 185 1049 b 80 981 113 1049 94 1026 l 69 981 b 147 1130 69 1090 94 1130 b 312 1063 190 1130 267 1063 b 372 1131 340 1063 358 1086 l 383 1131 b 306 983 383 1023 358 983 m 162 909 l 125 674 l 140 671 b 284 941 173 903 225 941 b 383 816 341 941 383 894 l 383 0 l 275 0 l 275 756 b 238 836 275 812 267 836 b 162 586 194 836 162 730 l 162 0 l 54 0 l 54 926 l 162 926 "},"ń":{"ha":437,"x_min":0,"x_max":0,"o":"m 346 1111 b 114 981 346 1025 282 983 l 114 991 b 248 1111 213 1006 259 1057 l 245 1127 l 346 1127 l 346 1111 m 162 909 l 125 674 l 140 671 b 284 941 173 903 225 941 b 383 816 341 941 383 894 l 383 0 l 275 0 l 275 756 b 238 836 275 812 267 836 b 162 586 194 836 162 730 l 162 0 l 54 0 l 54 926 l 162 926 "},"ň":{"ha":437,"x_min":0,"x_max":0,"o":"m 231 1066 b 380 1127 231 1102 273 1127 l 380 1117 b 281 1012 313 1110 281 1076 l 281 981 l 171 981 l 171 1012 b 73 1117 171 1076 139 1110 l 73 1127 b 221 1066 179 1127 221 1102 m 162 909 l 125 674 l 140 671 b 284 941 173 903 225 941 b 383 816 341 941 383 894 l 383 0 l 275 0 l 275 756 b 238 836 275 812 267 836 b 162 586 194 836 162 730 l 162 0 l 54 0 l 54 926 l 162 926 "},"ò":{"ha":426,"x_min":0,"x_max":0,"o":"m 86 1127 l 187 1127 l 184 1111 b 318 991 173 1057 219 1006 l 318 981 b 86 1111 150 983 86 1025 m 204 -15 b 54 165 106 -15 54 32 l 54 733 b 222 941 54 884 131 941 b 372 761 321 941 372 894 l 372 193 b 204 -15 372 42 295 -15 m 204 836 b 162 748 170 836 162 802 l 162 218 b 222 90 162 106 190 90 b 264 177 256 90 264 123 l 264 708 b 204 836 264 819 235 836 "},"ó":{"ha":426,"x_min":0,"x_max":0,"o":"m 330 1111 b 99 981 330 1025 267 983 l 99 991 b 233 1111 198 1006 244 1057 l 230 1127 l 330 1127 l 330 1111 m 204 -15 b 54 165 106 -15 54 32 l 54 733 b 222 941 54 884 131 941 b 372 761 321 941 372 894 l 372 193 b 204 -15 372 42 295 -15 m 204 836 b 162 748 170 836 162 802 l 162 218 b 222 90 162 106 190 90 b 264 177 256 90 264 123 l 264 708 b 204 836 264 819 235 836 "},"ô":{"ha":426,"x_min":0,"x_max":0,"o":"m 205 1042 b 57 981 205 1006 164 981 l 57 991 b 156 1096 123 998 156 1032 l 156 1127 l 265 1127 l 265 1096 b 364 991 265 1032 298 998 l 364 981 b 216 1042 258 981 216 1006 l 205 1042 m 204 -15 b 54 165 106 -15 54 32 l 54 733 b 222 941 54 884 131 941 b 372 761 321 941 372 894 l 372 193 b 204 -15 372 42 295 -15 m 204 836 b 162 748 170 836 162 802 l 162 218 b 222 90 162 106 190 90 b 264 177 256 90 264 123 l 264 708 b 204 836 264 819 235 836 "},"õ":{"ha":426,"x_min":0,"x_max":0,"o":"m 301 983 b 136 1049 258 983 181 1049 b 76 981 108 1049 90 1026 l 65 981 b 142 1130 65 1090 90 1130 b 307 1063 185 1130 262 1063 b 367 1131 335 1063 353 1086 l 378 1131 b 301 983 378 1023 353 983 m 204 -15 b 54 165 106 -15 54 32 l 54 733 b 222 941 54 884 131 941 b 372 761 321 941 372 894 l 372 193 b 204 -15 372 42 295 -15 m 204 836 b 162 748 170 836 162 802 l 162 218 b 222 90 162 106 190 90 b 264 177 256 90 264 123 l 264 708 b 204 836 264 819 235 836 "},"ö":{"ha":426,"x_min":0,"x_max":0,"o":"m 59 1096 l 191 1096 l 191 1025 l 59 1025 m 228 1096 l 361 1096 l 361 1025 l 228 1025 m 204 -15 b 54 165 106 -15 54 32 l 54 733 b 222 941 54 884 131 941 b 372 761 321 941 372 894 l 372 193 b 204 -15 372 42 295 -15 m 204 836 b 162 748 170 836 162 802 l 162 218 b 222 90 162 106 190 90 b 264 177 256 90 264 123 l 264 708 b 204 836 264 819 235 836 "},"ō":{"ha":426,"x_min":0,"x_max":0,"o":"m 69 1096 l 372 1096 l 372 1025 l 69 1025 m 204 -15 b 54 165 106 -15 54 32 l 54 733 b 222 941 54 884 131 941 b 372 761 321 941 372 894 l 372 193 b 204 -15 372 42 295 -15 m 204 836 b 162 748 170 836 162 802 l 162 218 b 222 90 162 106 190 90 b 264 177 256 90 264 123 l 264 708 b 204 836 264 819 235 836 "},"ŏ":{"ha":426,"x_min":0,"x_max":0,"o":"m 221 1056 b 335 1127 290 1056 326 1071 l 344 1127 b 221 981 343 1014 302 981 b 97 1127 139 981 99 1014 l 106 1127 b 221 1056 116 1071 151 1056 m 204 -15 b 54 165 106 -15 54 32 l 54 733 b 222 941 54 884 131 941 b 372 761 321 941 372 894 l 372 193 b 204 -15 372 42 295 -15 m 204 836 b 162 748 170 836 162 802 l 162 218 b 222 90 162 106 190 90 b 264 177 256 90 264 123 l 264 708 b 204 836 264 819 235 836 "},"ő":{"ha":426,"x_min":0,"x_max":0,"o":"m 225 1111 b 79 981 225 1025 185 983 l 79 991 b 136 1111 123 997 147 1059 l 133 1127 l 225 1127 l 225 1111 m 380 1111 b 233 981 380 1025 340 983 l 233 991 b 290 1111 278 997 301 1059 l 287 1127 l 380 1127 l 380 1111 m 204 -15 b 54 165 106 -15 54 32 l 54 733 b 222 941 54 884 131 941 b 372 761 321 941 372 894 l 372 193 b 204 -15 372 42 295 -15 m 204 836 b 162 748 170 836 162 802 l 162 218 b 222 90 162 106 190 90 b 264 177 256 90 264 123 l 264 708 b 204 836 264 819 235 836 "},"ø":{"ha":426,"x_min":0,"x_max":0,"o":"m 0 0 l 56 131 b 54 165 54 142 54 153 l 54 733 b 222 941 54 884 131 941 b 361 852 293 941 341 917 l 392 926 l 426 926 l 370 795 b 372 761 372 784 372 773 l 372 193 b 204 -15 372 42 295 -15 b 65 74 133 -15 86 9 l 34 0 m 204 836 b 162 748 170 836 162 802 l 162 383 l 264 623 l 264 708 b 204 836 264 819 235 836 m 162 218 b 222 90 162 106 190 90 b 264 177 256 90 264 123 l 264 543 l 162 302 l 162 218 "},"œ":{"ha":611,"x_min":0,"x_max":0,"o":"m 184 -15 b 54 165 106 -15 54 32 l 54 733 b 222 941 54 884 131 941 b 335 761 296 941 335 895 l 335 733 l 349 733 b 448 941 349 884 383 941 b 557 761 512 941 557 894 l 557 512 l 372 512 l 372 218 b 455 90 372 106 412 90 b 525 247 502 90 522 148 l 529 427 l 551 427 l 556 242 b 406 -15 559 96 509 -15 b 301 165 336 -15 301 29 l 301 193 l 287 193 b 184 -15 287 42 248 -15 m 204 836 b 162 748 170 836 162 802 l 162 218 b 222 90 162 106 190 90 b 264 177 256 90 264 123 l 264 708 b 204 836 264 819 235 836 m 465 710 b 417 836 465 821 448 836 b 372 748 380 836 372 802 l 372 534 l 465 534 l 465 710 "},"ŕ":{"ha":350,"x_min":0,"x_max":0,"o":"m 307 1111 b 76 981 307 1025 244 983 l 76 991 b 210 1111 174 1006 221 1057 l 207 1127 l 307 1127 l 307 1111 m 265 827 b 162 590 216 827 162 745 l 162 0 l 54 0 l 54 926 l 160 926 l 160 909 l 127 674 l 142 671 b 265 941 174 903 213 941 b 335 789 312 941 335 890 b 304 508 335 748 330 645 l 187 508 b 307 787 275 693 307 759 b 265 827 307 815 293 827 "},"ś":{"ha":367,"x_min":0,"x_max":0,"o":"m 315 1111 b 83 981 315 1025 252 983 l 83 991 b 218 1111 182 1006 228 1057 l 215 1127 l 315 1127 l 315 1111 m 341 174 b 170 -15 341 42 262 -15 b 35 128 79 -15 35 32 b 52 363 35 207 42 295 l 164 363 b 65 130 85 211 65 162 b 170 90 65 102 94 90 b 233 160 221 90 233 120 b 28 750 233 313 28 583 b 199 941 28 887 106 941 b 318 799 279 941 318 895 b 301 585 318 738 315 667 l 199 585 b 289 798 269 722 289 767 b 199 836 289 826 264 836 b 136 769 148 836 136 809 b 341 174 136 637 341 309 "},"ŝ":{"ha":367,"x_min":0,"x_max":0,"o":"m 190 1042 b 42 981 190 1006 148 981 l 42 991 b 140 1096 108 998 140 1032 l 140 1127 l 250 1127 l 250 1096 b 349 991 250 1032 282 998 l 349 981 b 201 1042 242 981 201 1006 l 190 1042 m 341 174 b 170 -15 341 42 262 -15 b 35 128 79 -15 35 32 b 52 363 35 207 42 295 l 164 363 b 65 130 85 211 65 162 b 170 90 65 102 94 90 b 233 160 221 90 233 120 b 28 750 233 313 28 583 b 199 941 28 887 106 941 b 318 799 279 941 318 895 b 301 585 318 738 315 667 l 199 585 b 289 798 269 722 289 767 b 199 836 289 826 264 836 b 136 769 148 836 136 809 b 341 174 136 637 341 309 "},"ş":{"ha":367,"x_min":0,"x_max":0,"o":"m 193 -201 b 106 -142 145 -201 120 -168 l 113 -134 b 159 -150 125 -144 134 -150 b 196 -114 184 -150 196 -131 b 171 -82 196 -94 187 -82 b 142 -96 159 -82 153 -86 l 133 -88 l 168 -19 l 164 -15 b 35 128 77 -14 35 34 b 52 363 35 207 42 295 l 164 363 b 65 130 85 211 65 162 b 170 90 65 102 94 90 b 233 160 221 90 233 120 b 28 750 233 313 28 583 b 199 941 28 887 106 941 b 318 799 279 941 318 895 b 301 585 318 738 315 667 l 199 585 b 289 798 269 722 289 767 b 199 836 289 826 264 836 b 136 769 148 836 136 809 b 341 174 136 637 341 309 b 193 -14 341 52 275 -5 l 173 -54 l 179 -59 b 208 -54 188 -56 199 -54 b 273 -116 244 -54 273 -73 b 193 -201 273 -165 236 -201 "},"š":{"ha":367,"x_min":0,"x_max":0,"o":"m 201 1066 b 349 1127 201 1102 242 1127 l 349 1117 b 250 1012 282 1110 250 1076 l 250 981 l 140 981 l 140 1012 b 42 1117 140 1076 108 1110 l 42 1127 b 190 1066 148 1127 190 1102 m 341 174 b 170 -15 341 42 262 -15 b 35 128 79 -15 35 32 b 52 363 35 207 42 295 l 164 363 b 65 130 85 211 65 162 b 170 90 65 102 94 90 b 233 160 221 90 233 120 b 28 750 233 313 28 583 b 199 941 28 887 106 941 b 318 799 279 941 318 895 b 301 585 318 738 315 667 l 199 585 b 289 798 269 722 289 767 b 199 836 289 826 264 836 b 136 769 148 836 136 809 b 341 174 136 637 341 309 "},"ù":{"ha":437,"x_min":0,"x_max":0,"o":"m 102 1127 l 202 1127 l 199 1111 b 333 991 188 1057 235 1006 l 333 981 b 102 1111 165 983 102 1025 m 275 17 l 312 252 l 296 255 b 153 -15 264 23 211 -15 b 54 110 96 -15 54 32 l 54 926 l 162 926 l 162 170 b 199 90 162 114 170 90 b 275 340 242 90 275 196 l 275 926 l 383 926 l 383 0 l 275 0 "},"ú":{"ha":437,"x_min":0,"x_max":0,"o":"m 346 1111 b 114 981 346 1025 282 983 l 114 991 b 248 1111 213 1006 259 1057 l 245 1127 l 346 1127 l 346 1111 m 275 17 l 312 252 l 296 255 b 153 -15 264 23 211 -15 b 54 110 96 -15 54 32 l 54 926 l 162 926 l 162 170 b 199 90 162 114 170 90 b 275 340 242 90 275 196 l 275 926 l 383 926 l 383 0 l 275 0 "},"û":{"ha":437,"x_min":0,"x_max":0,"o":"m 221 1042 b 73 981 221 1006 179 981 l 73 991 b 171 1096 139 998 171 1032 l 171 1127 l 281 1127 l 281 1096 b 380 991 281 1032 313 998 l 380 981 b 231 1042 273 981 231 1006 l 221 1042 m 275 17 l 312 252 l 296 255 b 153 -15 264 23 211 -15 b 54 110 96 -15 54 32 l 54 926 l 162 926 l 162 170 b 199 90 162 114 170 90 b 275 340 242 90 275 196 l 275 926 l 383 926 l 383 0 l 275 0 "},"ü":{"ha":437,"x_min":0,"x_max":0,"o":"m 74 1096 l 207 1096 l 207 1025 l 74 1025 m 244 1096 l 377 1096 l 377 1025 l 244 1025 m 275 17 l 312 252 l 296 255 b 153 -15 264 23 211 -15 b 54 110 96 -15 54 32 l 54 926 l 162 926 l 162 170 b 199 90 162 114 170 90 b 275 340 242 90 275 196 l 275 926 l 383 926 l 383 0 l 275 0 "},"ũ":{"ha":437,"x_min":0,"x_max":0,"o":"m 306 983 b 140 1049 262 983 185 1049 b 80 981 113 1049 94 1026 l 69 981 b 147 1130 69 1090 94 1130 b 312 1063 190 1130 267 1063 b 372 1131 340 1063 358 1086 l 383 1131 b 306 983 383 1023 358 983 m 275 17 l 312 252 l 296 255 b 153 -15 264 23 211 -15 b 54 110 96 -15 54 32 l 54 926 l 162 926 l 162 170 b 199 90 162 114 170 90 b 275 340 242 90 275 196 l 275 926 l 383 926 l 383 0 l 275 0 "},"ū":{"ha":437,"x_min":0,"x_max":0,"o":"m 74 1096 l 377 1096 l 377 1025 l 74 1025 m 275 17 l 312 252 l 296 255 b 153 -15 264 23 211 -15 b 54 110 96 -15 54 32 l 54 926 l 162 926 l 162 170 b 199 90 162 114 170 90 b 275 340 242 90 275 196 l 275 926 l 383 926 l 383 0 l 275 0 "},"ŭ":{"ha":437,"x_min":0,"x_max":0,"o":"m 225 1056 b 340 1127 295 1056 330 1071 l 349 1127 b 225 981 347 1014 307 981 b 102 1127 144 981 103 1014 l 111 1127 b 225 1056 120 1071 156 1056 m 275 17 l 312 252 l 296 255 b 153 -15 264 23 211 -15 b 54 110 96 -15 54 32 l 54 926 l 162 926 l 162 170 b 199 90 162 114 170 90 b 275 340 242 90 275 196 l 275 926 l 383 926 l 383 0 l 275 0 "},"ů":{"ha":437,"x_min":0,"x_max":0,"o":"m 225 981 b 127 1065 154 981 127 1009 b 225 1148 127 1120 154 1148 b 324 1065 296 1148 324 1120 b 225 981 324 1009 296 981 m 225 1023 b 265 1065 252 1023 265 1040 b 225 1106 265 1090 252 1106 b 185 1065 199 1106 185 1090 b 225 1023 185 1040 199 1023 m 275 17 l 312 252 l 296 255 b 153 -15 264 23 211 -15 b 54 110 96 -15 54 32 l 54 926 l 162 926 l 162 170 b 199 90 162 114 170 90 b 275 340 242 90 275 196 l 275 926 l 383 926 l 383 0 l 275 0 "},"ű":{"ha":437,"x_min":0,"x_max":0,"o":"m 230 1111 b 83 981 230 1025 190 983 l 83 991 b 140 1111 128 997 151 1059 l 137 1127 l 230 1127 l 230 1111 m 384 1111 b 238 981 384 1025 344 983 l 238 991 b 295 1111 282 997 306 1059 l 292 1127 l 384 1127 l 384 1111 m 275 17 l 312 252 l 296 255 b 153 -15 264 23 211 -15 b 54 110 96 -15 54 32 l 54 926 l 162 926 l 162 170 b 199 90 162 114 170 90 b 275 340 242 90 275 196 l 275 926 l 383 926 l 383 0 l 275 0 "},"ų":{"ha":437,"x_min":0,"x_max":0,"o":"m 275 17 l 312 252 l 296 255 b 153 -15 264 23 211 -15 b 54 110 96 -15 54 32 l 54 926 l 162 926 l 162 170 b 199 90 162 114 170 90 b 275 340 242 90 275 196 l 275 926 l 383 926 l 383 0 b 335 -83 350 -37 335 -62 b 367 -116 335 -108 347 -116 b 417 -103 386 -116 406 -110 l 424 -111 b 330 -201 404 -153 367 -201 b 264 -136 298 -201 264 -179 b 347 -15 264 -91 290 -59 l 338 0 l 275 0 "},"ŵ":{"ha":573,"x_min":0,"x_max":0,"o":"m 282 1042 b 134 981 282 1006 241 981 l 134 991 b 233 1096 199 998 233 1032 l 233 1127 l 343 1127 l 343 1096 b 441 991 343 1032 375 998 l 441 981 b 293 1042 333 981 293 1006 l 282 1042 m 156 600 l 171 292 l 188 292 l 259 926 l 326 926 l 375 600 l 410 292 l 427 292 l 454 926 l 580 926 l 421 0 l 378 0 l 275 594 l 258 594 l 190 0 l 147 0 l -8 926 l 110 926 "},"ẁ":{"ha":573,"x_min":0,"x_max":0,"o":"m 181 1127 l 281 1127 l 278 1111 b 412 991 267 1057 313 1006 l 412 981 b 181 1111 244 983 181 1025 m 156 600 l 171 292 l 188 292 l 259 926 l 326 926 l 375 600 l 410 292 l 427 292 l 454 926 l 580 926 l 421 0 l 378 0 l 275 594 l 258 594 l 190 0 l 147 0 l -8 926 l 110 926 "},"ẃ":{"ha":573,"x_min":0,"x_max":0,"o":"m 424 1111 b 193 981 424 1025 361 983 l 193 991 b 327 1111 292 1006 338 1057 l 324 1127 l 424 1127 l 424 1111 m 156 600 l 171 292 l 188 292 l 259 926 l 326 926 l 375 600 l 410 292 l 427 292 l 454 926 l 580 926 l 421 0 l 378 0 l 275 594 l 258 594 l 190 0 l 147 0 l -8 926 l 110 926 "},"ẅ":{"ha":573,"x_min":0,"x_max":0,"o":"m 136 1096 l 269 1096 l 269 1025 l 136 1025 m 306 1096 l 438 1096 l 438 1025 l 306 1025 m 156 600 l 171 292 l 188 292 l 259 926 l 326 926 l 375 600 l 410 292 l 427 292 l 454 926 l 580 926 l 421 0 l 378 0 l 275 594 l 258 594 l 190 0 l 147 0 l -8 926 l 110 926 "},"ý":{"ha":372,"x_min":0,"x_max":0,"o":"m 302 1111 b 71 981 302 1025 239 983 l 71 991 b 205 1111 170 1006 216 1057 l 202 1127 l 302 1127 l 302 1111 m 160 585 l 194 276 l 211 276 l 253 926 l 380 926 l 164 -201 l 31 -201 l 190 127 l 145 127 l -8 926 l 110 926 "},"ÿ":{"ha":372,"x_min":0,"x_max":0,"o":"m 31 1096 l 164 1096 l 164 1025 l 31 1025 m 201 1096 l 333 1096 l 333 1025 l 201 1025 m 160 585 l 194 276 l 211 276 l 253 926 l 380 926 l 164 -201 l 31 -201 l 190 127 l 145 127 l -8 926 l 110 926 "},"ŷ":{"ha":372,"x_min":0,"x_max":0,"o":"m 177 1042 b 29 981 177 1006 136 981 l 29 991 b 128 1096 96 998 128 1032 l 128 1127 l 238 1127 l 238 1096 b 336 991 238 1032 270 998 l 336 981 b 188 1042 230 981 188 1006 l 177 1042 m 160 585 l 194 276 l 211 276 l 253 926 l 380 926 l 164 -201 l 31 -201 l 190 127 l 145 127 l -8 926 l 110 926 "},"ỳ":{"ha":372,"x_min":0,"x_max":0,"o":"m 59 1127 l 159 1127 l 156 1111 b 290 991 145 1057 191 1006 l 290 981 b 59 1111 122 983 59 1025 m 160 585 l 194 276 l 211 276 l 253 926 l 380 926 l 164 -201 l 31 -201 l 190 127 l 145 127 l -8 926 l 110 926 "},"ź":{"ha":358,"x_min":0,"x_max":0,"o":"m 290 1111 b 59 981 290 1025 227 983 l 59 991 b 193 1111 157 1006 204 1057 l 190 1127 l 290 1127 l 290 1111 m 207 860 l 196 872 l 43 802 l 43 926 l 326 926 l 130 63 l 137 52 l 335 123 l 335 0 l 8 0 "},"ż":{"ha":358,"x_min":0,"x_max":0,"o":"m 88 1127 l 252 1127 l 252 1048 l 88 1048 m 207 860 l 196 872 l 43 802 l 43 926 l 326 926 l 130 63 l 137 52 l 335 123 l 335 0 l 8 0 "},"ž":{"ha":358,"x_min":0,"x_max":0,"o":"m 176 1066 b 324 1127 176 1102 218 1127 l 324 1117 b 225 1012 258 1110 225 1076 l 225 981 l 116 981 l 116 1012 b 17 1117 116 1076 83 1110 l 17 1127 b 165 1066 123 1127 165 1102 m 207 860 l 196 872 l 43 802 l 43 926 l 326 926 l 130 63 l 137 52 l 335 123 l 335 0 l 8 0 "},"ª":{"ha":383,"x_min":0,"x_max":0,"o":"m 168 1144 b 276 1042 241 1144 276 1105 l 276 704 b 302 631 276 639 289 631 b 323 679 313 631 321 639 l 327 835 l 344 835 l 347 684 b 279 546 349 605 336 546 b 221 758 228 546 205 582 l 208 759 b 113 546 190 576 159 546 b 40 634 65 546 40 574 l 40 644 b 190 875 40 744 93 782 l 190 1011 b 139 1060 190 1049 181 1060 b 80 1005 93 1060 80 1039 l 80 856 l 65 856 l 52 991 b 168 1144 46 1062 103 1144 m 150 636 b 191 826 176 636 191 711 l 191 847 b 128 715 137 796 128 765 l 128 667 b 150 636 128 644 137 636 m 31 485 l 347 485 l 347 454 l 31 454 "},"º":{"ha":315,"x_min":0,"x_max":0,"o":"m 150 546 b 31 691 73 546 31 585 l 31 975 b 165 1142 31 1096 93 1142 b 284 997 244 1142 284 1103 l 284 713 b 150 546 284 593 222 546 m 150 1059 b 117 988 123 1059 117 1031 l 117 733 b 165 630 117 644 139 630 b 198 701 191 630 198 657 l 198 955 b 150 1059 198 1045 174 1059 m 31 485 l 284 485 l 284 454 l 31 454 "},"ß":{"ha":546,"x_min":0,"x_max":0,"o":"m 532 1031 b 333 738 532 863 333 852 b 539 174 333 613 539 301 b 367 -15 539 42 460 -15 b 233 128 276 -15 233 32 b 250 363 233 207 239 295 l 361 363 b 262 130 282 211 262 162 b 367 90 262 102 292 90 b 431 160 418 90 431 120 b 225 719 431 306 225 562 b 471 963 225 917 471 883 b 281 1045 471 1017 403 1045 b 154 971 184 1045 154 1029 l 154 0 l 46 0 l 46 785 b 364 1142 46 968 188 1142 b 532 1031 475 1142 532 1105 "},"ð":{"ha":437,"x_min":0,"x_max":0,"o":"m 54 679 b 198 941 54 864 99 941 b 304 890 236 941 270 921 l 313 900 l 275 940 b 238 1052 275 981 261 1020 l 111 998 l 111 1028 l 221 1074 b 105 1147 191 1105 151 1131 l 105 1157 l 241 1157 b 309 1111 267 1148 289 1133 l 401 1150 l 401 1120 l 326 1090 b 383 866 363 1037 383 960 l 383 193 b 210 -15 383 42 304 -15 b 54 165 110 -15 54 32 l 54 679 m 165 218 b 228 90 165 106 194 90 b 275 177 265 90 275 123 l 275 812 b 208 843 255 832 233 843 b 165 688 179 843 165 821 "},"þ":{"ha":437,"x_min":0,"x_max":0,"o":"m 383 247 b 239 -15 383 62 338 -15 b 133 35 201 -15 167 5 l 123 26 l 162 -14 l 162 -201 l 54 -201 l 54 1157 l 160 1157 l 160 909 l 125 674 l 140 671 b 284 941 173 903 225 941 b 383 816 341 941 383 894 l 383 247 m 272 756 b 231 836 272 812 258 836 b 162 590 198 836 162 731 l 162 114 b 228 83 182 94 204 83 b 272 238 258 83 272 105 "},"_":{"ha":733,"x_min":0,"x_max":0,"o":"m 31 -15 l 702 -15 l 702 -66 l 31 -66 "},"-":{"ha":321,"x_min":0,"x_max":0,"o":"m 31 535 l 290 535 l 290 485 l 31 485 "},"–":{"ha":733,"x_min":0,"x_max":0,"o":"m 31 535 l 702 535 l 702 485 l 31 485 "},"—":{"ha":1466,"x_min":0,"x_max":0,"o":"m 31 535 l 1435 535 l 1435 485 l 31 485 "},"(":{"ha":230,"x_min":0,"x_max":0,"o":"m 46 946 b 222 1127 46 1079 108 1127 l 222 1022 b 154 894 173 1022 154 1005 l 154 32 b 222 -96 154 -79 173 -96 l 222 -201 b 46 -20 108 -201 46 -153 l 46 946 "},")":{"ha":230,"x_min":0,"x_max":0,"o":"m 184 -20 b 8 -201 184 -153 122 -201 l 8 -96 b 76 32 57 -96 76 -79 l 76 894 b 8 1022 76 1005 57 1022 l 8 1127 b 184 946 122 1127 184 1079 l 184 -20 "},"[":{"ha":230,"x_min":0,"x_max":0,"o":"m 222 1127 l 222 1022 l 154 1022 l 154 -96 l 222 -96 l 222 -201 l 46 -201 l 46 1127 "},"]":{"ha":230,"x_min":0,"x_max":0,"o":"m 184 -201 l 8 -201 l 8 -96 l 76 -96 l 76 1022 l 8 1022 l 8 1127 l 184 1127 "},"{":{"ha":284,"x_min":0,"x_max":0,"o":"m 208 32 b 276 -96 208 -79 227 -96 l 276 -201 b 100 -20 162 -201 100 -153 l 100 332 b 28 448 100 407 79 448 l 0 448 l 0 478 l 28 478 b 100 594 79 478 100 519 l 100 946 b 276 1127 100 1079 162 1127 l 276 1022 b 208 894 227 1022 208 1005 l 208 687 b 93 472 208 543 170 486 l 93 454 b 208 239 170 440 208 383 l 208 32 "},"}":{"ha":284,"x_min":0,"x_max":0,"o":"m 76 239 b 191 454 76 383 114 440 l 191 472 b 76 687 114 486 76 543 l 76 894 b 8 1022 76 1005 57 1022 l 8 1127 b 184 946 122 1127 184 1079 l 184 594 b 256 478 184 519 205 478 l 284 478 l 284 448 l 256 448 b 184 332 205 448 184 407 l 184 -20 b 8 -201 184 -153 122 -201 l 8 -96 b 76 32 57 -96 76 -79 "},"#":{"ha":718,"x_min":0,"x_max":0,"o":"m 37 532 l 164 444 l 225 718 l 222 718 l 34 744 l 34 870 l 236 761 l 285 988 l 316 1127 l 437 1127 l 330 761 l 336 748 l 463 748 l 515 988 l 546 1127 l 667 1127 l 560 758 l 566 745 l 684 745 l 684 619 l 548 708 l 489 434 l 492 434 l 681 407 l 681 281 l 480 389 l 395 0 l 278 0 l 383 395 l 378 403 l 252 403 l 165 0 l 48 0 l 153 395 l 147 406 l 37 406 m 392 438 l 455 713 l 319 713 l 259 438 "},"%":{"ha":855,"x_min":0,"x_max":0,"o":"m 204 494 b 54 674 106 494 54 542 l 54 934 b 222 1142 54 1085 131 1142 b 372 961 321 1142 372 1094 l 372 702 b 204 494 372 551 295 494 m 468 616 l 444 630 l 608 1127 l 758 1127 m 204 1037 b 162 949 170 1037 162 1003 l 162 727 b 222 599 162 616 190 599 b 264 687 256 599 264 633 l 264 909 b 204 1037 264 1020 235 1037 m 633 -15 b 483 165 535 -15 483 32 l 483 424 b 651 633 483 576 560 633 b 801 452 750 633 801 585 l 801 193 b 633 -15 801 42 724 -15 m 633 528 b 591 440 599 528 591 494 l 591 218 b 651 90 591 106 619 90 b 693 177 685 90 693 123 l 693 400 b 633 528 693 511 664 528 m 387 511 l 410 497 l 247 0 l 97 0 "},"‰":{"ha":1256,"x_min":0,"x_max":0,"o":"m 204 494 b 54 674 106 494 54 542 l 54 934 b 222 1142 54 1085 131 1142 b 372 961 321 1142 372 1094 l 372 702 b 204 494 372 551 295 494 m 468 616 l 444 630 l 608 1127 l 758 1127 m 204 1037 b 162 949 170 1037 162 1003 l 162 727 b 222 599 162 616 190 599 b 264 687 256 599 264 633 l 264 909 b 204 1037 264 1020 235 1037 m 1034 -15 b 884 165 937 -15 884 32 l 884 424 b 1052 633 884 576 961 633 b 1202 452 1151 633 1202 585 l 1202 193 b 1034 -15 1202 42 1125 -15 m 633 -15 b 483 165 535 -15 483 32 l 483 424 b 651 633 483 576 560 633 b 801 452 750 633 801 585 l 801 193 b 633 -15 801 42 724 -15 m 1034 528 b 992 440 1000 528 992 494 l 992 218 b 1052 90 992 106 1020 90 b 1094 177 1086 90 1094 123 l 1094 400 b 1034 528 1094 511 1065 528 m 633 528 b 591 440 599 528 591 494 l 591 218 b 651 90 591 106 619 90 b 693 177 685 90 693 123 l 693 400 b 633 528 693 511 664 528 m 387 511 l 410 497 l 247 0 l 97 0 "},"'":{"ha":215,"x_min":0,"x_max":0,"o":"m 39 1127 l 176 1127 l 176 1017 l 119 1017 l 160 833 l 54 833 l 96 1017 l 39 1017 "},"\"":{"ha":383,"x_min":0,"x_max":0,"o":"m 39 1127 l 176 1127 l 176 1017 l 119 1017 l 160 833 l 54 833 l 96 1017 l 39 1017 m 207 1127 l 344 1127 l 344 1017 l 287 1017 l 329 833 l 222 833 l 264 1017 l 207 1017 "},"‘":{"ha":210,"x_min":0,"x_max":0,"o":"m 39 988 b 173 1171 37 1137 59 1181 l 179 1082 b 68 988 85 1080 63 1029 l 176 988 l 176 878 l 39 878 l 39 988 "},"’":{"ha":202,"x_min":0,"x_max":0,"o":"m 26 1127 l 164 1127 l 164 1017 b 29 833 165 867 144 824 l 23 923 b 134 1017 117 924 139 975 l 26 1017 "},"“":{"ha":407,"x_min":0,"x_max":0,"o":"m 236 972 b 370 1156 235 1122 256 1165 l 377 1066 b 265 972 282 1065 261 1014 l 373 972 l 373 863 l 236 863 l 236 972 m 62 972 b 196 1156 60 1122 82 1165 l 202 1066 b 91 972 108 1065 86 1014 l 199 972 l 199 863 l 62 863 l 62 972 "},"”":{"ha":369,"x_min":0,"x_max":0,"o":"m 19 1127 l 156 1127 l 156 1017 b 22 833 157 867 136 824 l 15 923 b 127 1017 110 924 131 975 l 19 1017 m 193 1127 l 330 1127 l 330 1017 b 196 833 332 867 310 824 l 190 923 b 301 1017 284 924 306 975 l 193 1017 "},"‚":{"ha":210,"x_min":0,"x_max":0,"o":"m 34 110 l 171 110 l 171 0 b 37 -184 173 -150 151 -193 l 31 -94 b 142 0 125 -93 147 -42 l 34 0 "},"„":{"ha":387,"x_min":0,"x_max":0,"o":"m 34 110 l 171 110 l 171 0 b 37 -184 173 -150 151 -193 l 31 -94 b 142 0 125 -93 147 -42 l 34 0 m 211 110 l 349 110 l 349 0 b 215 -184 350 -150 329 -193 l 208 -94 b 319 0 302 -93 324 -42 l 211 0 "},"«":{"ha":407,"x_min":0,"x_max":0,"o":"m 85 461 b 204 182 85 421 111 363 l 86 182 b 56 463 60 319 56 423 b 86 744 56 506 60 610 l 204 744 b 85 461 111 566 85 508 m 253 461 b 372 182 253 421 279 363 l 255 182 b 224 463 228 319 224 423 b 255 744 224 506 228 610 l 372 744 b 253 461 279 566 253 508 "},"»":{"ha":407,"x_min":0,"x_max":0,"o":"m 323 461 b 204 744 323 508 296 566 l 321 744 b 352 463 347 610 352 506 b 321 182 352 423 347 319 l 204 182 b 323 461 296 363 323 421 m 154 461 b 35 744 154 508 128 566 l 153 744 b 184 463 179 610 184 506 b 153 182 184 423 179 319 l 35 182 b 154 461 128 363 154 421 "},"‹":{"ha":239,"x_min":0,"x_max":0,"o":"m 85 461 b 204 182 85 421 111 363 l 86 182 b 56 463 60 319 56 423 b 86 744 56 506 60 610 l 204 744 b 85 461 111 566 85 508 "},"›":{"ha":239,"x_min":0,"x_max":0,"o":"m 154 461 b 35 744 154 508 128 566 l 153 744 b 184 463 179 610 184 506 b 153 182 184 423 179 319 l 35 182 b 154 461 128 363 154 421 "},"*":{"ha":352,"x_min":0,"x_max":0,"o":"m 181 948 l 171 948 l 136 816 l 120 815 l 99 869 l 40 873 l 37 889 l 154 963 l 153 971 l 15 961 l 8 977 l 52 1014 l 39 1071 l 52 1079 l 157 992 l 164 998 l 114 1123 l 127 1134 l 176 1103 l 225 1134 l 238 1123 l 188 998 l 194 992 l 299 1079 l 313 1071 l 299 1014 l 344 977 l 336 961 l 199 971 l 198 963 l 315 889 l 312 873 l 253 869 l 231 815 l 216 816 "},"†":{"ha":466,"x_min":0,"x_max":0,"o":"m 164 1123 l 176 1134 l 233 1103 l 290 1134 l 302 1123 l 245 836 l 253 829 l 432 883 l 443 870 l 412 816 l 443 762 l 432 750 l 253 804 l 245 796 l 302 3 l 290 -8 l 233 23 l 176 -8 l 164 3 l 221 796 l 213 804 l 34 750 l 23 762 l 54 816 l 23 870 l 34 883 l 213 829 l 221 836 "},"‡":{"ha":466,"x_min":0,"x_max":0,"o":"m 213 375 l 34 321 l 23 333 l 54 387 l 23 441 l 34 454 l 213 400 l 221 407 l 221 719 l 213 727 l 34 673 l 23 685 l 54 739 l 23 793 l 34 806 l 213 752 l 221 759 l 164 1123 l 176 1134 l 233 1103 l 290 1134 l 302 1123 l 245 759 l 253 752 l 432 806 l 443 793 l 412 739 l 443 685 l 432 673 l 253 727 l 245 719 l 245 407 l 253 400 l 432 454 l 443 441 l 412 387 l 443 333 l 432 321 l 253 375 l 245 367 l 302 3 l 290 -8 l 233 23 l 176 -8 l 164 3 l 221 367 "},".":{"ha":210,"x_min":0,"x_max":0,"o":"m 31 110 l 179 110 l 179 0 l 31 0 "},",":{"ha":210,"x_min":0,"x_max":0,"o":"m 34 110 l 171 110 l 171 0 b 37 -184 173 -150 151 -193 l 31 -94 b 142 0 125 -93 147 -42 l 34 0 "},":":{"ha":225,"x_min":0,"x_max":0,"o":"m 39 741 l 187 741 l 187 631 l 39 631 m 39 295 l 187 295 l 187 185 l 39 185 "},";":{"ha":218,"x_min":0,"x_max":0,"o":"m 46 546 l 179 546 l 179 437 l 46 437 m 42 110 l 179 110 l 179 0 b 45 -184 181 -150 159 -193 l 39 -94 b 150 0 133 -93 154 -42 l 42 0 "},"…":{"ha":660,"x_min":0,"x_max":0,"o":"m 31 110 l 179 110 l 179 0 l 31 0 m 256 110 l 404 110 l 404 0 l 256 0 m 481 110 l 630 110 l 630 0 l 481 0 "},"!":{"ha":210,"x_min":0,"x_max":0,"o":"m 31 110 l 93 110 l 39 1127 l 171 1127 l 117 110 l 179 110 l 179 0 l 31 0 "},"¡":{"ha":210,"x_min":0,"x_max":0,"o":"m 39 -201 l 93 816 l 31 816 l 31 926 l 179 926 l 179 816 l 117 816 l 171 -201 "},"?":{"ha":323,"x_min":0,"x_max":0,"o":"m 99 110 l 160 110 b 207 866 139 287 207 667 l 207 977 b 144 1037 207 1025 194 1037 b 46 951 66 1037 46 1003 b 196 710 46 889 74 833 l 48 710 b 8 934 19 781 8 866 b 181 1142 8 1031 83 1142 b 315 1017 270 1142 315 1094 l 315 889 b 185 110 315 667 160 343 l 247 110 l 247 0 l 99 0 "},"¿":{"ha":323,"x_min":0,"x_max":0,"o":"m 222 816 l 160 816 b 114 60 182 639 114 259 l 114 -51 b 177 -111 114 -99 127 -111 b 275 -25 255 -111 275 -77 b 125 216 275 37 247 93 l 273 216 b 313 -8 302 145 313 60 b 140 -216 313 -105 238 -216 b 6 -91 51 -216 6 -168 l 6 37 b 136 816 6 259 160 583 l 74 816 l 74 926 l 222 926 "},"/":{"ha":356,"x_min":0,"x_max":0,"o":"m 86 0 l 0 0 l 231 1127 l 356 1127 "},"\\":{"ha":356,"x_min":0,"x_max":0,"o":"m 125 1127 l 356 0 l 270 0 l 0 1127 "},"@":{"ha":860,"x_min":0,"x_max":0,"o":"m 639 -15 b 505 151 548 -15 486 19 l 519 252 l 503 255 b 360 -15 471 23 418 -15 b 261 110 302 -15 261 32 l 261 679 b 404 941 261 864 306 941 b 576 850 469 941 529 904 l 590 853 l 599 926 l 620 926 l 590 673 l 590 187 b 651 77 590 111 606 77 b 705 205 679 77 705 114 l 705 833 b 429 1051 705 1019 594 1051 b 153 850 228 1051 153 1002 l 153 74 b 366 -110 153 -73 255 -110 b 713 -71 486 -110 583 -103 l 716 -90 b 324 -201 548 -125 468 -201 b 54 74 177 -201 54 -148 l 54 818 b 435 1142 54 1069 176 1142 b 806 841 704 1142 806 1073 l 806 256 b 639 -15 806 63 735 -15 m 372 170 b 412 90 372 114 386 90 b 481 336 446 90 481 194 l 481 812 b 415 843 461 832 440 843 b 372 688 386 843 372 821 "},"&":{"ha":539,"x_min":0,"x_max":0,"o":"m 512 756 l 512 660 l 478 651 b 378 509 427 637 401 600 b 361 321 358 429 346 380 l 389 218 b 448 90 417 111 418 90 b 485 247 474 90 481 148 l 489 429 l 511 429 l 515 242 b 404 -15 519 96 489 -15 b 302 165 338 -15 293 32 l 289 165 b 145 -15 253 12 201 -15 b 31 110 79 -15 31 32 l 31 403 b 125 633 31 565 71 633 b 188 605 148 633 164 628 l 196 614 l 145 664 l 74 934 b 253 1142 35 1083 156 1142 b 390 998 346 1142 390 1094 b 380 756 390 943 389 866 m 364 627 b 301 756 384 730 361 756 l 247 756 b 361 991 340 920 361 961 b 253 1037 361 1025 324 1037 b 188 949 201 1037 173 1003 l 290 577 l 313 418 l 324 418 m 142 170 b 198 90 142 114 160 90 b 267 199 224 90 252 131 l 179 532 b 170 534 176 534 173 534 b 142 412 151 534 142 517 l 142 170 "},"§":{"ha":475,"x_min":0,"x_max":0,"o":"m 454 375 b 335 230 454 273 380 230 b 215 310 292 230 267 248 l 204 302 b 361 108 247 233 329 174 b 397 -11 383 65 397 25 b 224 -201 395 -147 316 -201 b 105 -59 144 -201 105 -154 b 122 125 105 -6 111 56 l 216 125 b 134 -57 157 5 134 -31 b 224 -96 134 -85 159 -96 b 287 -28 275 -96 287 -68 b 14 566 287 103 14 401 b 133 711 14 668 88 711 b 253 631 176 711 201 693 l 264 639 b 106 833 221 708 139 767 b 71 952 85 877 71 917 b 242 1144 71 1090 150 1144 b 361 1002 323 1144 361 1097 b 344 818 361 949 355 887 l 250 818 b 332 1000 309 938 332 974 b 242 1039 332 1028 307 1039 b 179 971 191 1039 179 1011 b 454 375 179 840 454 540 m 122 580 b 179 403 122 523 153 446 b 298 306 225 333 252 306 b 346 361 336 306 346 330 b 289 539 346 418 315 495 b 170 636 242 608 216 636 b 122 580 131 636 122 611 "},"¶":{"ha":448,"x_min":0,"x_max":0,"o":"m 321 1127 l 321 0 l 279 0 l 279 452 l 256 452 b 46 647 123 452 46 506 l 46 918 b 276 1127 46 1069 151 1127 m 401 1127 l 401 0 l 360 0 l 360 1127 "},"·":{"ha":210,"x_min":0,"x_max":0,"o":"m 31 563 l 179 563 l 179 454 l 31 454 "},"•":{"ha":272,"x_min":0,"x_max":0,"o":"m 31 596 l 241 596 l 241 424 l 31 424 "},"+":{"ha":460,"x_min":0,"x_max":0,"o":"m 177 327 l 216 485 l 204 497 l 46 458 l 46 563 l 207 525 l 216 534 l 177 694 l 282 694 l 244 534 l 253 525 l 414 563 l 414 458 l 253 497 l 244 488 l 282 327 "},"−":{"ha":460,"x_min":0,"x_max":0,"o":"m 46 500 l 46 520 l 414 562 l 414 465 "},"=":{"ha":460,"x_min":0,"x_max":0,"o":"m 46 644 l 414 674 l 414 574 l 46 623 m 46 446 l 414 397 l 414 377 l 46 346 "},"<":{"ha":468,"x_min":0,"x_max":0,"o":"m 15 441 l 15 460 l 282 926 l 468 926 l 85 477 l 468 0 l 298 0 "},">":{"ha":468,"x_min":0,"x_max":0,"o":"m 0 0 l 383 449 l 0 926 l 170 926 l 452 485 l 452 466 l 185 0 "},"$":{"ha":375,"x_min":0,"x_max":0,"o":"m 137 -52 l 137 -12 b 35 128 68 -3 35 45 b 52 424 35 227 39 340 l 137 424 l 137 526 b 28 948 85 677 28 830 b 201 1142 28 1082 106 1139 l 201 1173 l 231 1173 l 231 1140 b 326 998 295 1131 326 1083 b 309 718 326 940 326 823 l 231 718 l 231 617 b 349 174 287 449 349 273 b 170 -15 349 42 267 -15 l 168 -15 l 168 -52 m 201 648 l 201 1037 b 144 966 154 1034 144 1005 b 188 648 144 892 184 762 m 296 983 b 231 1035 296 1019 278 1032 l 231 799 l 242 799 b 296 983 270 863 296 949 m 168 485 l 168 90 l 170 90 b 233 160 221 90 233 120 b 179 485 233 248 187 380 m 65 147 b 137 91 65 110 85 94 l 137 349 l 127 349 b 65 147 85 255 65 187 "},"€":{"ha":394,"x_min":0,"x_max":0,"o":"m 15 508 l 76 508 l 76 569 l 26 569 l 32 600 l 76 600 l 76 934 b 241 1142 76 1085 151 1142 b 360 998 321 1142 360 1094 b 329 656 360 920 356 812 l 211 656 b 330 991 319 887 330 948 b 241 1037 330 1025 306 1037 b 191 949 201 1037 191 1003 l 191 600 l 301 600 l 295 569 l 191 569 l 191 508 l 284 508 l 278 477 l 191 477 l 191 218 b 255 90 191 106 224 90 b 313 247 295 90 310 148 l 318 429 l 340 429 l 344 242 b 210 -15 347 96 302 -15 b 76 165 122 -15 76 32 l 76 477 l 9 477 "},"^":{"ha":386,"x_min":0,"x_max":0,"o":"m 188 517 b 56 287 188 381 151 287 l 56 296 b 144 556 117 302 144 407 l 144 741 l 244 741 l 244 556 b 332 296 244 395 270 302 l 332 287 b 199 517 236 287 199 381 l 188 517 "},"~":{"ha":386,"x_min":0,"x_max":0,"o":"m 366 605 b 284 457 366 497 340 457 b 99 509 233 457 150 509 b 31 457 68 509 35 486 l 20 457 b 103 603 22 563 48 603 b 289 551 153 603 238 551 b 356 605 319 551 352 574 l 366 605 "},"´":{"ha":386,"x_min":0,"x_max":0,"o":"m 330 1111 b 99 981 330 1025 267 983 l 99 991 b 233 1111 198 1006 244 1057 l 230 1127 l 330 1127 l 330 1111 "},"`":{"ha":386,"x_min":0,"x_max":0,"o":"m 86 1127 l 187 1127 l 184 1111 b 318 991 173 1057 219 1006 l 318 981 b 86 1111 150 983 86 1025 "},"˝":{"ha":386,"x_min":0,"x_max":0,"o":"m 199 1111 b 52 981 199 1025 159 983 l 52 991 b 110 1111 97 997 120 1059 l 106 1127 l 199 1127 l 199 1111 m 353 1111 b 207 981 353 1025 313 983 l 207 991 b 264 1111 252 997 275 1059 l 261 1127 l 353 1127 l 353 1111 "},"ˆ":{"ha":386,"x_min":0,"x_max":0,"o":"m 188 1042 b 40 981 188 1006 147 981 l 40 991 b 139 1096 106 998 139 1032 l 139 1127 l 248 1127 l 248 1096 b 347 991 248 1032 281 998 l 347 981 b 199 1042 241 981 199 1006 l 188 1042 "},"ˇ":{"ha":386,"x_min":0,"x_max":0,"o":"m 199 1066 b 347 1127 199 1102 241 1127 l 347 1117 b 248 1012 281 1110 248 1076 l 248 981 l 139 981 l 139 1012 b 40 1117 139 1076 106 1110 l 40 1127 b 188 1066 147 1127 188 1102 "},"˘":{"ha":386,"x_min":0,"x_max":0,"o":"m 193 1056 b 307 1127 262 1056 298 1071 l 316 1127 b 193 981 315 1014 275 981 b 69 1127 111 981 71 1014 l 79 1127 b 193 1056 88 1071 123 1056 "},"˜":{"ha":386,"x_min":0,"x_max":0,"o":"m 273 981 b 108 1048 230 981 153 1048 b 48 980 80 1048 62 1025 l 37 980 b 114 1128 37 1088 62 1128 b 279 1062 157 1128 235 1062 b 340 1130 307 1062 326 1085 l 350 1130 b 273 981 350 1022 326 981 "},"¯":{"ha":386,"x_min":0,"x_max":0,"o":"m 42 1096 l 344 1096 l 344 1025 l 42 1025 "},"¨":{"ha":386,"x_min":0,"x_max":0,"o":"m 42 1096 l 174 1096 l 174 1025 l 42 1025 m 211 1096 l 344 1096 l 344 1025 l 211 1025 "},"˙":{"ha":386,"x_min":0,"x_max":0,"o":"m 111 1127 l 275 1127 l 275 1048 l 111 1048 "},"˚":{"ha":386,"x_min":0,"x_max":0,"o":"m 193 981 b 94 1065 122 981 94 1009 b 193 1148 94 1120 122 1148 b 292 1065 264 1148 292 1120 b 193 981 292 1009 264 981 m 193 1023 b 233 1065 219 1023 233 1040 b 193 1106 233 1090 219 1106 b 153 1065 167 1106 153 1090 b 193 1023 153 1040 167 1023 "},"¸":{"ha":386,"x_min":0,"x_max":0,"o":"m 205 -201 b 119 -142 157 -201 133 -168 l 125 -134 b 171 -150 137 -144 147 -150 b 208 -114 196 -150 208 -131 b 184 -82 208 -94 199 -82 b 154 -96 171 -82 165 -86 l 145 -88 l 181 -19 l 150 6 l 216 6 l 185 -54 l 191 -59 b 221 -54 201 -56 211 -54 b 285 -116 256 -54 285 -73 b 205 -201 285 -165 248 -201 "},"˛":{"ha":386,"x_min":0,"x_max":0,"o":"m 140 -201 b 74 -136 108 -201 74 -179 b 157 -15 74 -91 100 -59 l 148 0 l 193 0 b 145 -83 160 -37 145 -62 b 177 -116 145 -108 157 -116 b 227 -103 196 -116 216 -110 l 235 -111 b 140 -201 215 -153 177 -201 "},"°":{"ha":341,"x_min":0,"x_max":0,"o":"m 170 832 b 15 986 85 832 15 901 b 170 1142 15 1071 85 1142 b 326 986 255 1142 326 1071 b 170 832 326 901 255 832 m 170 881 b 276 986 228 881 276 929 b 170 1094 276 1046 228 1094 b 65 986 113 1094 65 1046 b 170 881 65 929 113 881 "},"ﬀ":{"ha":554,"x_min":0,"x_max":0,"o":"m 187 926 l 355 926 b 605 1127 404 1040 506 1127 l 625 1127 l 625 992 b 508 1014 597 1005 557 1014 b 434 971 463 1014 434 1005 l 434 926 l 569 926 l 569 847 l 434 847 l 434 0 l 326 0 l 326 785 b 332 847 326 806 327 827 l 187 847 l 187 0 l 79 0 l 79 785 b 85 847 79 806 80 827 l 12 847 l 12 926 l 108 926 b 358 1127 157 1040 259 1127 l 378 1127 l 378 992 b 261 1014 350 1005 310 1014 b 187 971 216 1014 187 1005 "},"ﬁ":{"ha":492,"x_min":0,"x_max":0,"o":"m 187 926 l 276 926 l 276 847 l 187 847 l 187 0 l 79 0 l 79 755 b 88 847 79 787 82 818 l 12 847 l 12 926 l 111 926 b 401 1127 165 1054 279 1127 l 424 1127 l 424 986 b 298 1014 389 1003 349 1014 b 187 940 228 1014 187 992 m 423 0 l 315 0 l 315 926 l 423 926 "},"ﬂ":{"ha":477,"x_min":0,"x_max":0,"o":"m 187 926 l 276 926 l 276 847 l 187 847 l 187 0 l 79 0 l 79 785 b 83 847 79 806 80 827 l 12 847 l 12 926 l 103 926 b 313 1127 145 1040 230 1127 l 423 1127 l 423 0 l 315 0 l 315 1025 b 261 1029 299 1028 282 1029 b 187 971 216 1029 187 1017 "},"ﬃ":{"ha":724,"x_min":0,"x_max":0,"o":"m 187 926 l 356 926 b 647 1127 410 1054 525 1127 l 670 1127 l 670 986 b 543 1014 634 1003 594 1014 b 432 940 474 1014 432 992 l 432 926 l 522 926 l 522 847 l 432 847 l 432 0 l 324 0 l 324 755 b 333 847 324 787 327 818 l 187 847 l 187 0 l 79 0 l 79 785 b 85 847 79 806 80 827 l 12 847 l 12 926 l 108 926 b 358 1127 157 1040 259 1127 l 378 1127 l 378 992 b 261 1014 350 1005 310 1014 b 187 971 216 1014 187 1005 m 668 0 l 560 0 l 560 926 l 668 926 "},"ﬄ":{"ha":738,"x_min":0,"x_max":0,"o":"m 187 926 l 364 926 b 574 1127 406 1040 491 1127 l 684 1127 l 684 0 l 576 0 l 576 1025 b 522 1029 560 1028 543 1029 b 448 971 477 1029 448 1017 l 448 926 l 537 926 l 537 847 l 448 847 l 448 0 l 340 0 l 340 785 b 344 847 340 806 341 827 l 187 847 l 187 0 l 79 0 l 79 785 b 85 847 79 806 80 827 l 12 847 l 12 926 l 108 926 b 358 1127 157 1040 259 1127 l 378 1127 l 378 992 b 261 1014 350 1005 310 1014 b 187 971 216 1014 187 1005 "},"⚡":{"ha":679,"x_min":0,"x_max":0,"o":"m 613 738 l 176 -225 l 150 -208 l 397 446 l 387 452 l 144 154 l 130 134 l 117 142 l 100 151 l 103 154 l 350 806 l 340 812 l 82 495 l 52 511 l 386 1401 l 483 1363 l 244 769 l 259 759 l 534 1114 l 565 1097 l 293 407 l 307 400 l 582 755 "}}}
